<svg width="116" height="97" viewBox="0 0 116 97" fill="none" xmlns="http://www.w3.org/2000/svg">
<mask id="mask0_2194_9308" style="mask-type:luminance" maskUnits="userSpaceOnUse" x="0" y="18" width="37" height="75">
<path d="M35.8252 19.3203V91.5977H1.29688V19.3203H35.8252Z" fill="white" stroke="white" stroke-width="1.33333"/>
</mask>
<g mask="url(#mask0_2194_9308)">
<mask id="mask1_2194_9308" style="mask-type:luminance" maskUnits="userSpaceOnUse" x="-11" y="-2" width="95" height="94">
<path d="M82.582 79.7363L1.1709 91.0088L-9.97363 10.5342L71.4375 -0.738281L82.582 79.7363Z" fill="white" stroke="white" stroke-width="1.33333"/>
</mask>
<g mask="url(#mask1_2194_9308)">
<mask id="mask2_2194_9308" style="mask-type:luminance" maskUnits="userSpaceOnUse" x="-11" y="-2" width="95" height="94">
<path d="M82.582 79.7363L1.1709 91.0088L-9.97363 10.5342L71.4375 -0.738281L82.582 79.7363Z" fill="white" stroke="white" stroke-width="1.33333"/>
</mask>
<g mask="url(#mask2_2194_9308)">
<mask id="mask3_2194_9308" style="mask-type:luminance" maskUnits="userSpaceOnUse" x="-11" y="-2" width="95" height="94">
<path d="M82.582 79.7363L1.1709 91.0088L-9.97363 10.5342L71.4375 -0.738281L82.582 79.7363Z" fill="white" stroke="white" stroke-width="1.33333"/>
</mask>
<g mask="url(#mask3_2194_9308)">
<path d="M35.1699 19.7041V19.7031C35.2107 19.7237 35.3346 19.8151 35.4131 20.2061C35.4909 20.5941 35.4946 21.1546 35.4033 21.8809C35.2217 23.325 34.686 25.2591 33.8623 27.4199C32.2157 31.7396 29.4733 36.8266 26.3477 40.4971L26.2939 40.5605L26.2568 40.6357C23.0111 47.2518 12.306 69.0511 5.00098 82.6797C11.042 68.4473 21.3185 46.4435 24.4414 39.7695L24.4766 39.6934L24.4922 39.6104C25.3902 34.8771 27.6354 29.5541 29.9697 25.5635C31.1375 23.5671 32.3091 21.9362 33.3213 20.8887C33.83 20.3623 34.2695 20.0143 34.6211 19.8311C34.9813 19.6434 35.1307 19.6855 35.1699 19.7041ZM34.8164 20.6465C34.4149 20.4545 34.0361 20.6321 33.8545 20.7402C33.6409 20.8674 33.4313 21.0576 33.2334 21.2666C32.8308 21.6917 32.3602 22.3214 31.8545 23.0898C30.9645 24.4421 29.9177 26.295 28.8721 28.4033L28.4248 29.3213C27.2326 31.8073 26.2851 34.1374 25.7188 35.8984C25.4372 36.7741 25.2408 37.5352 25.1621 38.1152C25.1234 38.4005 25.1076 38.6835 25.1426 38.9297C25.1723 39.139 25.2723 39.5443 25.6738 39.7363L25.6748 39.7373C26.0751 39.9277 26.4524 39.7527 26.6348 39.6445C26.8487 39.5175 27.0595 39.3271 27.2578 39.1182C27.6613 38.6931 28.133 38.0624 28.6396 37.2939C29.6584 35.7488 30.8813 33.5504 32.0723 31.0645C33.2632 28.5772 34.2093 26.2468 34.7744 24.4854C35.0554 23.6094 35.2511 22.8479 35.3291 22.2676C35.3674 21.9824 35.3831 21.6995 35.3477 21.4531C35.3174 21.2431 35.2168 20.8378 34.8154 20.6465H34.8164Z" fill="#E8E8E8" stroke="#E8E8E8" stroke-width="1.33333"/>
</g>
</g>
</g>
</g>
<mask id="mask4_2194_9308" style="mask-type:luminance" maskUnits="userSpaceOnUse" x="0" y="18" width="38" height="75">
<path d="M36.4531 18.6914V91.5986H0.666992V18.6914H36.4531Z" fill="white" stroke="white" stroke-width="1.33333"/>
</mask>
<g mask="url(#mask4_2194_9308)">
<mask id="mask5_2194_9308" style="mask-type:luminance" maskUnits="userSpaceOnUse" x="-11" y="-2" width="95" height="94">
<path d="M82.582 79.7363L1.1709 91.0088L-9.97363 10.5342L71.4375 -0.738281L82.582 79.7363Z" fill="white" stroke="white" stroke-width="1.33333"/>
</mask>
<g mask="url(#mask5_2194_9308)">
<mask id="mask6_2194_9308" style="mask-type:luminance" maskUnits="userSpaceOnUse" x="-11" y="-2" width="95" height="94">
<path d="M82.582 79.7363L1.1709 91.0088L-9.97363 10.5342L71.4375 -0.738281L82.582 79.7363Z" fill="white" stroke="white" stroke-width="1.33333"/>
</mask>
<g mask="url(#mask6_2194_9308)">
<mask id="mask7_2194_9308" style="mask-type:luminance" maskUnits="userSpaceOnUse" x="-11" y="-2" width="95" height="94">
<path d="M82.582 79.7363L1.1709 91.0088L-9.97363 10.5342L71.4375 -0.738281L82.582 79.7363Z" fill="white" stroke="white" stroke-width="1.33333"/>
</mask>
<g mask="url(#mask7_2194_9308)">
<path d="M35.4547 19.1014C37.9615 20.2983 33.2281 33.4467 26.8554 40.9302C22.756 49.2862 6.66831 82.0515 0.66183 91.7396C4.4466 80.9923 19.8929 47.9173 23.8374 39.4876C25.6683 29.8364 32.9503 17.907 35.4571 19.1039L35.4547 19.1014ZM34.5281 21.2494C33.8548 20.9274 31.3897 24.6729 29.0255 29.6103C26.6588 34.5452 25.2874 38.8142 25.9608 39.1361C26.6367 39.4581 29.1066 35.7126 31.4708 30.7777C33.8351 25.8403 35.204 21.5713 34.5281 21.2494Z" stroke="#E8E8E8" stroke-width="0.146456"/>
</g>
</g>
</g>
</g>
<mask id="mask8_2194_9308" style="mask-type:luminance" maskUnits="userSpaceOnUse" x="13" y="0" width="62" height="39">
<path d="M74.2031 1.0752V37.4912H13.8799V1.0752H74.2031Z" fill="white" stroke="white" stroke-width="1.33333"/>
</mask>
<g mask="url(#mask8_2194_9308)">
<mask id="mask9_2194_9308" style="mask-type:luminance" maskUnits="userSpaceOnUse" x="-11" y="-2" width="95" height="94">
<path d="M82.582 79.7363L1.1709 91.0088L-9.97363 10.5342L71.4375 -0.738281L82.582 79.7363Z" fill="white" stroke="white" stroke-width="1.33333"/>
</mask>
<g mask="url(#mask9_2194_9308)">
<mask id="mask10_2194_9308" style="mask-type:luminance" maskUnits="userSpaceOnUse" x="-11" y="-2" width="95" height="94">
<path d="M82.582 79.7363L1.1709 91.0088L-9.97363 10.5342L71.4375 -0.738281L82.582 79.7363Z" fill="white" stroke="white" stroke-width="1.33333"/>
</mask>
<g mask="url(#mask10_2194_9308)">
<mask id="mask11_2194_9308" style="mask-type:luminance" maskUnits="userSpaceOnUse" x="-11" y="-2" width="95" height="94">
<path d="M82.582 79.7363L1.1709 91.0088L-9.97363 10.5342L71.4375 -0.738281L82.582 79.7363Z" fill="white" stroke="white" stroke-width="1.33333"/>
</mask>
<g mask="url(#mask11_2194_9308)">
<path d="M57.0469 1.86133C61.7823 0.638382 67.9622 2.0954 71.2549 8.47461C72.6088 11.0977 73.3467 13.2521 73.5908 15.0283V15.0293C73.6068 15.1435 73.6204 15.258 73.6318 15.3721L73.6328 15.376C73.6604 15.6356 73.6761 15.8874 73.6807 16.1299V16.1318C73.7236 18.0659 73.0135 19.4839 71.8877 20.2373H71.8867C70.7238 21.016 69.1488 21.1878 67.3555 20.8652C65.5763 20.5447 63.6247 19.7391 61.6885 18.5C61.563 18.4196 61.5246 18.2524 61.6074 18.123C61.6793 18.0109 61.8174 17.9688 61.9355 18.0146L61.9844 18.04C63.862 19.2411 65.7795 20.0278 67.4561 20.3291C69.1176 20.6276 70.5858 20.4544 71.582 19.7871C72.0752 19.4568 72.4865 19.009 72.7617 18.3896C73.0326 17.7801 73.1556 17.0402 73.1357 16.1436C73.0956 14.3386 72.3829 11.8525 70.7656 8.72266C67.521 2.43646 61.705 1.22296 57.1836 2.38965H57.1826C55.0745 2.93494 53.2357 4.04019 52.1377 5.39453L51.9277 5.66895C51.4022 6.40087 51.0491 7.19404 50.9805 8.06152C50.9115 8.93398 51.1356 9.81857 51.6562 10.7197V10.7188C52.7376 12.5906 53.9446 14.3523 55.0596 16.0557C56.042 17.5566 56.9583 19.0209 57.7012 20.5273L58.0088 21.1758C59.5653 24.6028 60.0719 28.3891 58.0381 32.8916H58.0371C57.0829 35.0053 55.3455 36.2902 53.2578 36.8828L52.835 36.9922C50.53 37.531 47.8478 37.3568 45.0361 36.7998C40.8605 35.9742 36.512 34.306 33.0498 32.7949C33.1324 32.6309 33.2134 32.4666 33.2939 32.3027C36.7286 33.7987 41.0693 35.4594 45.1455 36.2676H45.1465C47.886 36.809 50.5541 36.9673 52.7119 36.4619C54.8983 35.9498 56.5586 34.836 57.5371 32.668C58.5349 30.4581 58.9256 28.4914 58.8594 26.6348C58.7932 24.7818 58.2737 23.0803 57.5098 21.4004C56.7457 19.7202 55.7028 18.0586 54.5918 16.3594C53.4731 14.6484 52.2848 12.8983 51.1836 10.9912C50.0599 9.04877 50.3338 6.95432 51.4844 5.35352C52.6622 3.71576 54.6665 2.47499 57.0469 1.8623V1.86133ZM14.542 17.8457C14.6747 17.7641 14.8413 17.8062 14.9199 17.9307H14.9209C16.9517 21.1411 18.6893 23.3532 20.6094 25.1055C22.5317 26.8598 24.6088 28.1278 27.2812 29.4814C28.6043 30.1522 29.3389 30.5242 29.7021 30.707C29.8771 30.7951 29.9785 30.8454 30.0127 30.8613C30.0162 30.8629 30.0213 30.8655 30.0273 30.8682C30.0298 30.8693 30.0478 30.8765 30.0703 30.8848C30.0771 30.8872 30.0938 30.8934 30.1035 30.8965C30.1189 30.901 30.1601 30.9109 30.1865 30.916C30.1971 30.9174 30.2131 30.9164 30.2334 30.916C30.3788 30.9844 30.5286 31.0536 30.6816 31.125C30.6009 31.2894 30.5204 31.4526 30.4395 31.6143C30.2322 31.5179 30.0304 31.4263 29.8389 31.335L29.8359 31.334L28.626 30.752L27.7939 30.3486C27.5831 30.2409 27.3528 30.124 27.1025 29.9961C24.376 28.6024 22.2444 27.2733 20.2861 25.498C18.3267 23.7217 16.5147 21.4752 14.457 18.2227C14.3862 18.1095 14.4074 17.9675 14.499 17.8799L14.542 17.8457Z" fill="#E8E8E8" stroke="#E8E8E8" stroke-width="1.33333"/>
</g>
</g>
</g>
</g>
<path d="M42.6738 46.2422C41.5873 46.647 40.6429 47.2446 39.8525 48.0342C39.057 48.8216 38.4447 49.7811 38.0088 50.9014L38.0078 50.9043C37.5729 52.0357 37.3643 53.304 37.3643 54.6924C37.3643 56.2192 37.5611 57.651 37.9629 58.9834V58.9854C38.3711 60.3245 38.9796 61.5022 39.7939 62.5049H39.7949C40.6137 63.511 41.6387 64.2999 42.8604 64.8711V64.8701C43.6192 65.2257 44.4465 65.4671 45.3389 65.6016C44.2646 65.4936 43.2618 65.2797 42.3301 64.9551L42.3291 64.9541C40.9336 64.4686 39.7515 63.7884 38.7695 62.9141L38.7676 62.9131L38.4092 62.5771C37.712 61.8904 37.1376 61.1057 36.6836 60.2188L36.4668 59.7666C35.9248 58.5449 35.6504 57.1797 35.6504 55.6553C35.6504 54.8073 35.7563 53.9743 35.9727 53.1504L35.9717 53.1494C36.193 52.3205 36.5112 51.5376 36.9287 50.7959C37.3517 50.0557 37.8693 49.3739 38.4854 48.751C39.1012 48.1283 39.8061 47.589 40.6016 47.1309L40.6025 47.1318C41.3018 46.7337 42.0652 46.4106 42.8955 46.1641L42.6738 46.2422ZM51.4395 64.9727C50.8432 65.1816 50.1887 65.3476 49.4717 65.4678H49.4678C49.2278 65.5094 48.9871 65.5426 48.7461 65.5723L48.8818 65.5488L48.8877 65.5479C49.4743 65.4205 50.0395 65.2364 50.582 64.9932L50.585 64.9922C50.958 64.8229 51.3147 64.6292 51.6582 64.416L51.4395 64.9727ZM47.7197 45.7295C48.877 45.8239 49.9669 46.0449 50.9932 46.3848L51.1797 46.8926C50.7809 46.6689 50.3586 46.4689 49.9121 46.2949H49.9111C49.217 46.0221 48.4861 45.8341 47.7197 45.7295Z" fill="#E8E8E8" stroke="#E8E8E8" stroke-width="1.33333"/>
<path d="M58.6982 46.0205C58.6977 46.0235 58.6968 46.0263 58.6963 46.0293C58.6662 46.1936 58.6398 46.3756 58.6172 46.5732L58.5586 47.2129C58.5236 47.6689 58.4944 48.2012 58.4697 48.8135C58.4421 49.4313 58.4297 50.1498 58.4297 50.9668V55.2842L59.0693 55.3096C59.5125 55.3271 60.0097 55.3393 60.5566 55.3457C59.999 55.3533 59.5025 55.3647 59.0684 55.3828L58.4297 55.4102V60.3057C58.4297 60.7154 58.4329 61.1005 58.4395 61.4609L58.4697 62.4688C58.4944 63.0756 58.5235 63.6031 58.5586 64.0498V64.0508C58.5914 64.5023 58.6355 64.8987 58.6953 65.2305C58.696 65.2344 58.6975 65.2382 58.6982 65.2422H56.8896C56.8902 65.2392 56.8911 65.2364 56.8916 65.2334L56.8926 65.2256C56.9203 65.0644 56.9466 64.8865 56.9707 64.6924L57.0371 64.0615C57.0779 63.6078 57.108 63.0736 57.1279 62.4609C57.1479 61.8424 57.1572 61.1241 57.1572 60.3057V50.9668C57.1572 50.5588 57.1554 50.1759 57.1504 49.8184L57.1279 48.8213C57.118 48.5126 57.1049 48.2237 57.0898 47.9541L57.0371 47.2021C56.9967 46.7453 56.9484 46.3542 56.8926 46.0352L56.8916 46.0293L56.8896 46.0205H58.6982ZM70.96 55.4111L70.3018 55.4023C69.9202 55.3974 69.4393 55.3926 68.8623 55.3926H68.8633C68.2952 55.3877 67.6737 55.3804 67.001 55.373H67.002C66.3242 55.3607 65.6168 55.3502 64.8828 55.3428H64.8809C64.5721 55.3407 64.265 55.3396 63.96 55.3379C64.2629 55.3349 64.5679 55.3333 64.874 55.3301H64.8779C65.5907 55.3178 66.2809 55.3048 66.9463 55.29H66.9502C67.6195 55.2704 68.2427 55.2511 68.8213 55.2314C69.3982 55.2117 69.9003 55.1917 70.3242 55.1719L70.96 55.1416V50.9668C70.96 50.5572 70.9561 50.173 70.9492 49.8145L70.9199 48.8164C70.9 48.2021 70.8724 47.6689 70.8398 47.2129V47.209L70.7803 46.5732C70.7578 46.3772 70.7325 46.1974 70.7041 46.0352L70.7031 46.0293L70.7012 46.0205H72.5C72.4995 46.0235 72.4986 46.0263 72.498 46.0293C72.4385 46.3541 72.3926 46.7494 72.3525 47.2021L72.3516 47.21C72.3161 47.6712 72.2913 48.2079 72.2715 48.8213C72.2515 49.435 72.2412 50.1508 72.2412 50.9668V60.3057C72.2412 61.1241 72.2515 61.8424 72.2715 62.4609C72.2814 62.7653 72.2925 63.0506 72.3057 63.3164L72.3516 64.0547L72.3525 64.0615C72.3924 64.5073 72.4383 64.8993 72.4971 65.2266V65.2275C72.4979 65.2323 72.4992 65.2374 72.5 65.2422H70.7012L70.7031 65.2334L70.7041 65.2256C70.7605 64.8976 70.8046 64.5037 70.8398 64.0537V64.0508C70.8725 63.6039 70.9 63.0753 70.9199 62.4658C70.9449 61.8464 70.96 61.127 70.96 60.3057V55.4111Z" fill="#E8E8E8" stroke="#E8E8E8" stroke-width="1.33333"/>
<path d="M80.5049 46.0205L80.5029 46.0293C80.4428 46.3572 80.398 46.7545 80.3652 47.21C80.3301 47.6674 80.3002 48.2016 80.2754 48.8164V48.8213C80.2554 49.435 80.2461 50.1508 80.2461 50.9668V60.3057C80.2461 61.1241 80.2554 61.8424 80.2754 62.4609V62.4658C80.3001 63.0738 80.3301 63.6025 80.3652 64.0498V64.0508C80.3981 64.5027 80.4421 64.8995 80.502 65.2314L80.5049 65.2422H78.7051C78.706 65.2363 78.7071 65.2305 78.708 65.2246L78.709 65.2256C78.7367 65.0644 78.763 64.8865 78.7871 64.6924L78.8535 64.0615C78.8943 63.6078 78.9244 63.0736 78.9443 62.4609C78.9643 61.8424 78.9736 61.1241 78.9736 60.3057V50.9668C78.9736 50.5588 78.9718 50.1759 78.9668 49.8184L78.9443 48.8213C78.9344 48.5126 78.9213 48.2237 78.9062 47.9541L78.8535 47.2021C78.8333 46.9736 78.8113 46.7612 78.7871 46.5664L78.708 46.0352C78.7072 46.0302 78.7059 46.0254 78.7051 46.0205H80.5049Z" fill="#E8E8E8" stroke="#E8E8E8" stroke-width="1.33333"/>
<path d="M92.7297 46.2422C91.6432 46.647 90.6989 47.2446 89.9084 48.0342C89.1129 48.8216 88.5007 49.7811 88.0647 50.9014L88.0637 50.9043C87.6289 52.0357 87.4202 53.304 87.4202 54.6924C87.4202 56.2192 87.617 57.651 88.0188 58.9834V58.9854C88.427 60.3245 89.0355 61.5022 89.8499 62.5049H89.8508C90.6696 63.511 91.6946 64.2999 92.9163 64.8711V64.8701C93.6752 65.2257 94.5025 65.4671 95.3948 65.6016C94.3205 65.4936 93.3177 65.2797 92.386 64.9551L92.385 64.9541C90.9895 64.4686 89.8074 63.7884 88.8254 62.9141L88.8235 62.9131L88.4651 62.5771C87.7679 61.8904 87.1935 61.1057 86.7395 60.2188L86.5227 59.7666C85.9807 58.5449 85.7063 57.1797 85.7063 55.6553C85.7063 54.8073 85.8122 53.9743 86.0286 53.1504L86.0276 53.1494C86.2489 52.3205 86.5671 51.5376 86.9846 50.7959C87.4076 50.0557 87.9252 49.3739 88.5413 48.751C89.1571 48.1283 89.862 47.589 90.6575 47.1309L90.6584 47.1318C91.3578 46.7337 92.1211 46.4106 92.9514 46.1641L92.7297 46.2422ZM101.495 64.9727C100.899 65.1816 100.245 65.3476 99.5276 65.4678H99.5237C99.2837 65.5094 99.043 65.5426 98.802 65.5723L98.9377 65.5488L98.9436 65.5479C99.5302 65.4205 100.095 65.2364 100.638 64.9932L100.641 64.9922C101.014 64.8229 101.371 64.6292 101.714 64.416L101.495 64.9727ZM97.7756 45.7295C98.9329 45.8239 100.023 46.0449 101.049 46.3848L101.236 46.8926C100.837 46.6689 100.415 46.4689 99.968 46.2949H99.967C99.2729 46.0221 98.542 45.8341 97.7756 45.7295Z" fill="#E8E8E8" stroke="#E8E8E8" stroke-width="1.33333"/>
<mask id="path-20-inside-1_2194_9308" fill="white">
<path d="M39.7117 81.4277C38.9301 81.4277 38.2567 81.2556 37.6866 80.9066C37.1213 80.5601 36.6838 80.0784 36.3693 79.4615C36.0596 78.8398 35.9072 78.1197 35.9072 77.2988C35.9072 76.4804 36.0596 75.7628 36.3693 75.1459C36.6838 74.5241 37.1213 74.04 37.6866 73.691C38.2567 73.3371 38.9301 73.1602 39.7117 73.1602C40.6284 73.1602 41.373 73.3813 41.9432 73.8188C42.5183 74.2587 42.8869 74.8682 43.0442 75.6473H41.9825C41.8645 75.1558 41.6139 74.7601 41.2354 74.4578C40.8618 74.158 40.3531 74.0056 39.7117 74.0056C39.1415 74.0056 38.6426 74.1383 38.2174 74.3988C37.7898 74.6618 37.4605 75.0378 37.2245 75.5293C36.9935 76.0209 36.8805 76.6107 36.8805 77.2988C36.8805 77.982 36.9935 78.567 37.2245 79.0585C37.4605 79.55 37.7898 79.9285 38.2174 80.189C38.6426 80.452 39.1415 80.5822 39.7117 80.5822C40.3531 80.5822 40.8618 80.4397 41.2354 80.1497C41.6139 79.8548 41.8645 79.4615 41.9825 78.97H43.0442C42.8869 79.7442 42.5183 80.3463 41.9432 80.7788C41.373 81.2114 40.6284 81.4277 39.7117 81.4277Z"/>
</mask>
<path d="M39.7117 81.4277C38.9301 81.4277 38.2567 81.2556 37.6866 80.9066C37.1213 80.5601 36.6838 80.0784 36.3693 79.4615C36.0596 78.8398 35.9072 78.1197 35.9072 77.2988C35.9072 76.4804 36.0596 75.7628 36.3693 75.1459C36.6838 74.5241 37.1213 74.04 37.6866 73.691C38.2567 73.3371 38.9301 73.1602 39.7117 73.1602C40.6284 73.1602 41.373 73.3813 41.9432 73.8188C42.5183 74.2587 42.8869 74.8682 43.0442 75.6473H41.9825C41.8645 75.1558 41.6139 74.7601 41.2354 74.4578C40.8618 74.158 40.3531 74.0056 39.7117 74.0056C39.1415 74.0056 38.6426 74.1383 38.2174 74.3988C37.7898 74.6618 37.4605 75.0378 37.2245 75.5293C36.9935 76.0209 36.8805 76.6107 36.8805 77.2988C36.8805 77.982 36.9935 78.567 37.2245 79.0585C37.4605 79.55 37.7898 79.9285 38.2174 80.189C38.6426 80.452 39.1415 80.5822 39.7117 80.5822C40.3531 80.5822 40.8618 80.4397 41.2354 80.1497C41.6139 79.8548 41.8645 79.4615 41.9825 78.97H43.0442C42.8869 79.7442 42.5183 80.3463 41.9432 80.7788C41.373 81.2114 40.6284 81.4277 39.7117 81.4277Z" fill="#444040"/>
<path d="M37.6866 80.9066L36.9897 82.0434L36.9905 82.0439L37.6866 80.9066ZM36.3693 79.4615L35.1757 80.056L35.1815 80.0673L36.3693 79.4615ZM36.3693 75.1459L35.1795 74.544L35.1776 74.5477L36.3693 75.1459ZM37.6866 73.691L38.387 74.8255L38.3897 74.8239L37.6866 73.691ZM41.9432 73.8188L41.1316 74.8767L41.1331 74.8778L41.9432 73.8188ZM43.0442 75.6473V76.9806H44.6736L44.3512 75.3834L43.0442 75.6473ZM41.9825 75.6473L40.686 75.9585L40.9313 76.9806H41.9825V75.6473ZM41.2354 74.4578L40.4008 75.4976L40.4033 75.4996L41.2354 74.4578ZM38.2174 74.3988L37.5208 73.2619L37.519 73.263L38.2174 74.3988ZM37.2245 75.5293L36.0225 74.9523L36.0178 74.9622L37.2245 75.5293ZM37.2245 79.0585L36.0178 79.6257L36.0225 79.6355L37.2245 79.0585ZM38.2174 80.189L38.9188 79.055L38.9111 79.0503L38.2174 80.189ZM41.2354 80.1497L42.053 81.2029L42.0549 81.2014L41.2354 80.1497ZM41.9825 78.97V77.6367H40.9313L40.686 78.6589L41.9825 78.97ZM43.0442 78.97L44.3509 79.2355L44.6757 77.6367H43.0442V78.97ZM41.9432 80.7788L41.1417 79.7133L41.1373 79.7166L41.9432 80.7788ZM39.7117 81.4277V80.0943C39.1311 80.0943 38.7082 79.9687 38.3826 79.7694L37.6866 80.9066L36.9905 82.0439C37.8053 82.5426 38.7291 82.761 39.7117 82.761V81.4277ZM37.6866 80.9066L38.3834 79.7699C38.0393 79.5589 37.7664 79.2664 37.5571 78.8558L36.3693 79.4615L35.1815 80.0673C35.6013 80.8905 36.2033 81.5613 36.9897 82.0434L37.6866 80.9066ZM36.3693 79.4615L37.5628 78.8672C37.3614 78.4629 37.2406 77.9535 37.2406 77.2988H35.9072H34.5739C34.5739 78.2858 34.7578 79.2166 35.1758 80.0559L36.3693 79.4615ZM35.9072 77.2988H37.2406C37.2406 76.6466 37.3614 76.1415 37.5609 75.7441L36.3693 75.1459L35.1776 74.5477C34.7578 75.3841 34.5739 76.3143 34.5739 77.2988H35.9072ZM36.3693 75.1459L37.559 75.7479C37.769 75.3328 38.0424 75.0383 38.387 74.8255L37.6866 73.691L36.9861 72.5565C36.2002 73.0417 35.5987 73.7155 35.1795 74.544L36.3693 75.1459ZM37.6866 73.691L38.3897 74.8239C38.7167 74.6209 39.1379 74.4935 39.7117 74.4935V73.1602V71.8268C38.7223 71.8268 37.7968 72.0533 36.9834 72.5582L37.6866 73.691ZM39.7117 73.1602V74.4935C40.4139 74.4935 40.85 74.6606 41.1316 74.8767L41.9432 73.8188L42.7548 72.761C41.896 72.1021 40.8428 71.8268 39.7117 71.8268V73.1602ZM41.9432 73.8188L41.1331 74.8778C41.4281 75.1035 41.6377 75.4181 41.7373 75.9112L43.0442 75.6473L44.3512 75.3834C44.1361 74.3183 43.6084 73.4139 42.7533 72.7598L41.9432 73.8188ZM43.0442 75.6473V74.314H41.9825V75.6473V76.9806H43.0442V75.6473ZM41.9825 75.6473L43.279 75.3361C43.0938 74.5643 42.6842 73.9085 42.0675 73.416L41.2354 74.4578L40.4033 75.4996C40.5436 75.6117 40.6353 75.7473 40.686 75.9585L41.9825 75.6473ZM41.2354 74.4578L42.07 73.418C41.3927 72.8744 40.5578 72.6723 39.7117 72.6723V74.0056V75.3389C40.1484 75.3389 40.331 75.4416 40.4008 75.4976L41.2354 74.4578ZM39.7117 74.0056V72.6723C38.9277 72.6723 38.1814 72.8572 37.5208 73.2619L38.2174 74.3988L38.914 75.5357C39.1038 75.4194 39.3553 75.3389 39.7117 75.3389V74.0056ZM38.2174 74.3988L37.519 73.263C36.853 73.6726 36.3584 74.2526 36.0225 74.9523L37.2245 75.5293L38.4266 76.1063C38.5625 75.823 38.7265 75.651 38.9158 75.5346L38.2174 74.3988ZM37.2245 75.5293L36.0178 74.9622C35.6829 75.6748 35.5471 76.4694 35.5471 77.2988H36.8805H38.2138C38.2138 76.7519 38.3041 76.3669 38.4312 76.0965L37.2245 75.5293ZM36.8805 77.2988H35.5471C35.5471 78.1257 35.6837 78.9147 36.0178 79.6256L37.2245 79.0585L38.4312 78.4913C38.3033 78.2193 38.2138 77.8384 38.2138 77.2988H36.8805ZM37.2245 79.0585L36.0225 79.6355C36.3568 80.3319 36.8512 80.918 37.5237 81.3277L38.2174 80.189L38.9111 79.0503C38.7284 78.939 38.5641 78.7682 38.4266 78.4815L37.2245 79.0585ZM38.2174 80.189L37.5161 81.323C38.1824 81.7351 38.9322 81.9156 39.7117 81.9156V80.5822V79.2489C39.3508 79.2489 39.1027 79.1688 38.9188 79.055L38.2174 80.189ZM39.7117 80.5822V81.9156C40.5391 81.9156 41.3714 81.7321 42.053 81.2029L41.2354 80.1497L40.4178 79.0965C40.3523 79.1473 40.1671 79.2489 39.7117 79.2489V80.5822ZM41.2354 80.1497L42.0549 81.2014C42.6818 80.7129 43.0936 80.0537 43.279 79.2812L41.9825 78.97L40.686 78.6589C40.6355 78.8694 40.5459 78.9966 40.4159 79.098L41.2354 80.1497ZM41.9825 78.97V80.3034H43.0442V78.97V77.6367H41.9825V78.97ZM43.0442 78.97L41.7376 78.7045C41.6391 79.1892 41.4328 79.4943 41.1417 79.7133L41.9432 80.7788L42.7446 81.8444C43.6037 81.1983 44.1347 80.2992 44.3509 79.2355L43.0442 78.97ZM41.9432 80.7788L41.1373 79.7166C40.8573 79.929 40.4202 80.0943 39.7117 80.0943V81.4277V82.761C40.8365 82.761 41.8887 82.4938 42.749 81.8411L41.9432 80.7788Z" fill="#E8E8E8" mask="url(#path-20-inside-1_2194_9308)"/>
<mask id="path-22-inside-2_2194_9308" fill="white">
<path d="M47.9004 81.2901V73.2979H48.854V80.5233H52.5797V81.2901H47.9004Z"/>
</mask>
<path d="M47.9004 81.2901V73.2979H48.854V80.5233H52.5797V81.2901H47.9004Z" fill="#444040"/>
<path d="M47.9004 81.2901H46.5671V82.6234H47.9004V81.2901ZM47.9004 73.2979V71.9645H46.5671V73.2979H47.9004ZM48.854 73.2979H50.1873V71.9645H48.854V73.2979ZM48.854 80.5233H47.5206V81.8567H48.854V80.5233ZM52.5797 80.5233H53.9131V79.19H52.5797V80.5233ZM52.5797 81.2901V82.6234H53.9131V81.2901H52.5797ZM47.9004 81.2901H49.2337V73.2979H47.9004H46.5671V81.2901H47.9004ZM47.9004 73.2979V74.6312H48.854V73.2979V71.9645H47.9004V73.2979ZM48.854 73.2979H47.5206V80.5233H48.854H50.1873V73.2979H48.854ZM48.854 80.5233V81.8567H52.5797V80.5233V79.19H48.854V80.5233ZM52.5797 80.5233H51.2464V81.2901H52.5797H53.9131V80.5233H52.5797ZM52.5797 81.2901V79.9568H47.9004V81.2901V82.6234H52.5797V81.2901Z" fill="#E8E8E8" mask="url(#path-22-inside-2_2194_9308)"/>
<mask id="path-24-inside-3_2194_9308" fill="white">
<path d="M60.9908 81.4277C60.2093 81.4277 59.5261 81.2556 58.9362 80.9066C58.3464 80.5601 57.8844 80.076 57.5501 79.4517C57.2208 78.8299 57.0586 78.1123 57.0586 77.2988C57.0586 76.4804 57.2208 75.7628 57.5501 75.1459C57.8844 74.5241 58.3464 74.04 58.9362 73.691C59.5261 73.3371 60.2093 73.1602 60.9908 73.1602C61.7822 73.1602 62.4752 73.3371 63.0651 73.691C63.6549 74.04 64.112 74.5241 64.4413 75.1459C64.7682 75.7628 64.9329 76.4804 64.9329 77.2988C64.9329 78.1123 64.7682 78.8299 64.4413 79.4517C64.112 80.076 63.6549 80.5601 63.0651 80.9066C62.4752 81.2556 61.7822 81.4277 60.9908 81.4277ZM60.9908 80.5822C61.5807 80.5822 62.0943 80.452 62.5342 80.189C62.9791 79.9285 63.3256 79.55 63.5763 79.0585C63.8245 78.567 63.9498 77.982 63.9498 77.2988C63.9498 76.6107 63.8245 76.0258 63.5763 75.5392C63.3256 75.055 62.9791 74.6814 62.5342 74.4185C62.0943 74.1506 61.5807 74.0154 60.9908 74.0154C60.4059 74.0154 59.8923 74.1506 59.4474 74.4185C59.0001 74.6814 58.6536 75.055 58.4054 75.5392C58.1547 76.0258 58.0318 76.6107 58.0318 77.2988C58.0318 77.982 58.1547 78.567 58.4054 79.0585C58.6536 79.55 59.0001 79.9285 59.4474 80.189C59.8923 80.452 60.4059 80.5822 60.9908 80.5822Z"/>
</mask>
<path d="M60.9908 81.4277C60.2093 81.4277 59.5261 81.2556 58.9362 80.9066C58.3464 80.5601 57.8844 80.076 57.5501 79.4517C57.2208 78.8299 57.0586 78.1123 57.0586 77.2988C57.0586 76.4804 57.2208 75.7628 57.5501 75.1459C57.8844 74.5241 58.3464 74.04 58.9362 73.691C59.5261 73.3371 60.2093 73.1602 60.9908 73.1602C61.7822 73.1602 62.4752 73.3371 63.0651 73.691C63.6549 74.04 64.112 74.5241 64.4413 75.1459C64.7682 75.7628 64.9329 76.4804 64.9329 77.2988C64.9329 78.1123 64.7682 78.8299 64.4413 79.4517C64.112 80.076 63.6549 80.5601 63.0651 80.9066C62.4752 81.2556 61.7822 81.4277 60.9908 81.4277ZM60.9908 80.5822C61.5807 80.5822 62.0943 80.452 62.5342 80.189C62.9791 79.9285 63.3256 79.55 63.5763 79.0585C63.8245 78.567 63.9498 77.982 63.9498 77.2988C63.9498 76.6107 63.8245 76.0258 63.5763 75.5392C63.3256 75.055 62.9791 74.6814 62.5342 74.4185C62.0943 74.1506 61.5807 74.0154 60.9908 74.0154C60.4059 74.0154 59.8923 74.1506 59.4474 74.4185C59.0001 74.6814 58.6536 75.055 58.4054 75.5392C58.1547 76.0258 58.0318 76.6107 58.0318 77.2988C58.0318 77.982 58.1547 78.567 58.4054 79.0585C58.6536 79.55 59.0001 79.9285 59.4474 80.189C59.8923 80.452 60.4059 80.5822 60.9908 80.5822Z" fill="#444040"/>
<path d="M58.9362 80.9066L59.6152 79.7591L59.6116 79.757L58.9362 80.9066ZM57.5501 79.4517L56.3718 80.0758L56.3747 80.0811L57.5501 79.4517ZM57.5501 75.1459L56.3757 74.5146L56.3739 74.518L57.5501 75.1459ZM58.9362 73.691L59.6152 74.8385L59.6222 74.8343L58.9362 73.691ZM63.0651 73.691L62.3791 74.8344L62.3861 74.8385L63.0651 73.691ZM64.4413 75.1459L63.2631 75.77L63.2632 75.7702L64.4413 75.1459ZM64.4413 79.4517L65.6206 80.0739L65.6215 80.0721L64.4413 79.4517ZM63.0651 80.9066L62.3897 79.757L62.3861 79.7591L63.0651 80.9066ZM62.5342 80.189L61.8604 79.0384L61.8501 79.0446L62.5342 80.189ZM63.5763 79.0585L64.764 79.6643L64.7664 79.6595L63.5763 79.0585ZM63.5763 75.5392L64.764 74.9333L64.7603 74.9261L63.5763 75.5392ZM62.5342 74.4185L61.8408 75.5573L61.8482 75.5618L61.8557 75.5662L62.5342 74.4185ZM59.4474 74.4185L60.1232 75.5679L60.1353 75.5607L59.4474 74.4185ZM58.4054 75.5392L59.5907 76.1498L59.5919 76.1475L58.4054 75.5392ZM58.4054 79.0585L59.5956 78.4574L59.5932 78.4527L58.4054 79.0585ZM59.4474 80.189L60.126 79.0412L60.1185 79.0368L59.4474 80.189ZM60.9908 81.4277V80.0943C60.4115 80.0943 59.97 79.9691 59.6152 79.7591L58.9362 80.9066L58.2573 82.0542C59.0821 82.5422 60.007 82.761 60.9908 82.761V81.4277ZM58.9362 80.9066L59.6116 79.757C59.2398 79.5386 58.9478 79.2374 58.7256 78.8223L57.5501 79.4517L56.3747 80.0811C56.8209 80.9145 57.453 81.5817 58.2608 82.0563L58.9362 80.9066ZM57.5501 79.4517L58.7284 78.8277C58.5171 78.4286 58.3919 77.9321 58.3919 77.2988H57.0586H55.7253C55.7253 78.2925 55.9245 79.2312 56.3719 80.0758L57.5501 79.4517ZM57.0586 77.2988H58.3919C58.3919 76.6588 58.5177 76.1646 58.7263 75.7739L57.5501 75.1459L56.3739 74.518C55.9239 75.361 55.7253 76.302 55.7253 77.2988H57.0586ZM57.5501 75.1459L58.7245 75.7772C58.9468 75.3637 59.24 75.0605 59.6152 74.8385L58.9362 73.691L58.2573 72.5435C57.4528 73.0194 56.8219 73.6845 56.3757 74.5146L57.5501 75.1459ZM58.9362 73.691L59.6222 74.8343C59.9784 74.6206 60.4182 74.4935 60.9908 74.4935V73.1602V71.8268C60.0004 71.8268 59.0737 72.0536 58.2502 72.5477L58.9362 73.691ZM60.9908 73.1602V74.4935C61.5784 74.4935 62.0267 74.6229 62.3791 74.8343L63.0651 73.691L63.7511 72.5477C62.9238 72.0513 61.986 71.8268 60.9908 71.8268V73.1602ZM63.0651 73.691L62.3861 74.8385C62.7575 75.0583 63.0449 75.3581 63.2631 75.77L64.4413 75.1459L65.6196 74.5219C65.1791 73.6902 64.5523 73.0217 63.744 72.5435L63.0651 73.691ZM64.4413 75.1459L63.2632 75.7702C63.4726 76.1653 63.5995 76.6621 63.5995 77.2988H64.9329H66.2662C66.2662 76.2987 66.0639 75.3603 65.6195 74.5216L64.4413 75.1459ZM64.9329 77.2988H63.5995C63.5995 77.9288 63.4732 78.4278 63.2612 78.8313L64.4413 79.4517L65.6215 80.0721C66.0632 79.232 66.2662 78.2958 66.2662 77.2988H64.9329ZM64.4413 79.4517L63.2621 78.8296C63.0439 79.2431 62.7577 79.5408 62.3897 79.757L63.0651 80.9066L63.7405 82.0563C64.5522 81.5794 65.1801 80.9089 65.6206 80.0739L64.4413 79.4517ZM63.0651 80.9066L62.3861 79.7591C62.035 79.9669 61.585 80.0943 60.9908 80.0943V81.4277V82.761C61.9794 82.761 62.9155 82.5444 63.744 82.0542L63.0651 80.9066ZM60.9908 80.5822V81.9156C61.783 81.9156 62.5408 81.7384 63.2183 81.3335L62.5342 80.189L61.8501 79.0446C61.6478 79.1655 61.3783 79.2489 60.9908 79.2489V80.5822ZM62.5342 80.189L63.208 81.3396C63.8922 80.9389 64.4083 80.3618 64.764 79.6643L63.5763 79.0585L62.3885 78.4527C62.2429 78.7383 62.0659 78.9181 61.8604 79.0385L62.5342 80.189ZM63.5763 79.0585L64.7664 79.6595C65.1277 78.9442 65.2832 78.1445 65.2832 77.2988H63.9498H62.6165C62.6165 77.8196 62.5213 78.1897 62.3861 78.4575L63.5763 79.0585ZM63.9498 77.2988H65.2832C65.2832 76.4505 65.1285 75.6478 64.764 74.9333L63.5763 75.5392L62.3885 76.145C62.5205 76.4037 62.6165 76.7708 62.6165 77.2988H63.9498ZM63.5763 75.5392L64.7603 74.9261C64.402 74.2341 63.8863 73.6689 63.2127 73.2707L62.5342 74.4185L61.8557 75.5662C62.0718 75.694 62.2492 75.8759 62.3922 76.1522L63.5763 75.5392ZM62.5342 74.4185L63.2277 73.2797C62.552 72.8682 61.7918 72.6821 60.9908 72.6821V74.0154V75.3487C61.3695 75.3487 61.6366 75.433 61.8408 75.5573L62.5342 74.4185ZM60.9908 74.0154V72.6821C60.1921 72.6821 59.4353 72.8693 58.7596 73.2763L59.4474 74.4185L60.1353 75.5607C60.3492 75.4318 60.6197 75.3487 60.9908 75.3487V74.0154ZM59.4474 74.4185L58.7717 73.2691C58.094 73.6675 57.5759 74.2345 57.2189 74.9309L58.4054 75.5392L59.5919 76.1475C59.7313 75.8755 59.9063 75.6954 60.1232 75.5679L59.4474 74.4185ZM58.4054 75.5392L57.2201 74.9285C56.8491 75.6486 56.6985 76.4549 56.6985 77.2988H58.0318H59.3652C59.3652 76.7665 59.4603 76.4029 59.5907 76.1498L58.4054 75.5392ZM58.0318 77.2988H56.6985C56.6985 78.1402 56.85 78.9434 57.2176 79.6643L58.4054 79.0585L59.5932 78.4527C59.4594 78.1905 59.3652 77.8239 59.3652 77.2988H58.0318ZM58.4054 79.0585L57.2152 79.6595C57.5696 80.3614 58.0881 80.9403 58.7764 81.3412L59.4474 80.189L60.1185 79.0368C59.9122 78.9167 59.7376 78.7386 59.5956 78.4575L58.4054 79.0585ZM59.4474 80.189L58.7689 81.3368C59.4465 81.7373 60.201 81.9156 60.9908 81.9156V80.5822V79.2489C60.6108 79.2489 60.338 79.1666 60.1259 79.0412L59.4474 80.189Z" fill="#E8E8E8" mask="url(#path-24-inside-3_2194_9308)"/>
<mask id="path-26-inside-4_2194_9308" fill="white">
<path d="M71.6485 81.2901V74.0843H69.2695V73.2979H74.9909V74.0843H72.6119V81.2901H71.6485Z"/>
</mask>
<path d="M71.6485 81.2901V74.0843H69.2695V73.2979H74.9909V74.0843H72.6119V81.2901H71.6485Z" fill="#444040"/>
<path d="M71.6485 81.2901H70.3152V82.6234H71.6485V81.2901ZM71.6485 74.0843H72.9819V72.751H71.6485V74.0843ZM69.2695 74.0843H67.9362V75.4176H69.2695V74.0843ZM69.2695 73.2979V71.9645H67.9362V73.2979H69.2695ZM74.9909 73.2979H76.3243V71.9645H74.9909V73.2979ZM74.9909 74.0843V75.4176H76.3243V74.0843H74.9909ZM72.6119 74.0843V72.751H71.2786V74.0843H72.6119ZM72.6119 81.2901V82.6234H73.9453V81.2901H72.6119ZM71.6485 81.2901H72.9819V74.0843H71.6485H70.3152V81.2901H71.6485ZM71.6485 74.0843V72.751H69.2695V74.0843V75.4176H71.6485V74.0843ZM69.2695 74.0843H70.6029V73.2979H69.2695H67.9362V74.0843H69.2695ZM69.2695 73.2979V74.6312H74.9909V73.2979V71.9645H69.2695V73.2979ZM74.9909 73.2979H73.6576V74.0843H74.9909H76.3243V73.2979H74.9909ZM74.9909 74.0843V72.751H72.6119V74.0843V75.4176H74.9909V74.0843ZM72.6119 74.0843H71.2786V81.2901H72.6119H73.9453V74.0843H72.6119ZM72.6119 81.2901V79.9568H71.6485V81.2901V82.6234H72.6119V81.2901Z" fill="#E8E8E8" mask="url(#path-26-inside-4_2194_9308)"/>
<mask id="path-28-inside-5_2194_9308" fill="white">
<path d="M79.6445 81.2901V73.2979H80.5981V76.827H84.7466V73.2979H85.7002V81.2901H84.7466V77.6135H80.5981V81.2901H79.6445Z"/>
</mask>
<path d="M79.6445 81.2901V73.2979H80.5981V76.827H84.7466V73.2979H85.7002V81.2901H84.7466V77.6135H80.5981V81.2901H79.6445Z" fill="#444040"/>
<path d="M79.6445 81.2901H78.3112V82.6234H79.6445V81.2901ZM79.6445 73.2979V71.9645H78.3112V73.2979H79.6445ZM80.5981 73.2979H81.9314V71.9645H80.5981V73.2979ZM80.5981 76.827H79.2648V78.1604H80.5981V76.827ZM84.7466 76.827V78.1604H86.0799V76.827H84.7466ZM84.7466 73.2979V71.9645H83.4133V73.2979H84.7466ZM85.7002 73.2979H87.0335V71.9645H85.7002V73.2979ZM85.7002 81.2901V82.6234H87.0335V81.2901H85.7002ZM84.7466 81.2901H83.4133V82.6234H84.7466V81.2901ZM84.7466 77.6135H86.0799V76.2801H84.7466V77.6135ZM80.5981 77.6135V76.2801H79.2648V77.6135H80.5981ZM80.5981 81.2901V82.6234H81.9314V81.2901H80.5981ZM79.6445 81.2901H80.9779V73.2979H79.6445H78.3112V81.2901H79.6445ZM79.6445 73.2979V74.6312H80.5981V73.2979V71.9645H79.6445V73.2979ZM80.5981 73.2979H79.2648V76.827H80.5981H81.9314V73.2979H80.5981ZM80.5981 76.827V78.1604H84.7466V76.827V75.4937H80.5981V76.827ZM84.7466 76.827H86.0799V73.2979H84.7466H83.4133V76.827H84.7466ZM84.7466 73.2979V74.6312H85.7002V73.2979V71.9645H84.7466V73.2979ZM85.7002 73.2979H84.3668V81.2901H85.7002H87.0335V73.2979H85.7002ZM85.7002 81.2901V79.9568H84.7466V81.2901V82.6234H85.7002V81.2901ZM84.7466 81.2901H86.0799V77.6135H84.7466H83.4133V81.2901H84.7466ZM84.7466 77.6135V76.2801H80.5981V77.6135V78.9468H84.7466V77.6135ZM80.5981 77.6135H79.2648V81.2901H80.5981H81.9314V77.6135H80.5981ZM80.5981 81.2901V79.9568H79.6445V81.2901V82.6234H80.5981V81.2901Z" fill="#E8E8E8" mask="url(#path-28-inside-5_2194_9308)"/>
<mask id="path-30-inside-6_2194_9308" fill="white">
<path d="M90.8652 81.2901V73.2979H91.8188V81.2901H90.8652Z"/>
</mask>
<path d="M90.8652 81.2901V73.2979H91.8188V81.2901H90.8652Z" fill="#444040"/>
<path d="M90.8652 81.2901H89.5319V82.6234H90.8652V81.2901ZM90.8652 73.2979V71.9645H89.5319V73.2979H90.8652ZM91.8188 73.2979H93.1521V71.9645H91.8188V73.2979ZM91.8188 81.2901V82.6234H93.1521V81.2901H91.8188ZM90.8652 81.2901H92.1986V73.2979H90.8652H89.5319V81.2901H90.8652ZM90.8652 73.2979V74.6312H91.8188V73.2979V71.9645H90.8652V73.2979ZM91.8188 73.2979H90.4855V81.2901H91.8188H93.1521V73.2979H91.8188ZM91.8188 81.2901V79.9568H90.8652V81.2901V82.6234H91.8188V81.2901Z" fill="#E8E8E8" mask="url(#path-30-inside-6_2194_9308)"/>
<mask id="path-32-inside-7_2194_9308" fill="white">
<path d="M96.9844 81.2901V73.2979H97.9379L102.195 79.7074V73.2979H103.158V81.2901H102.195L97.9379 74.8904V81.2901H96.9844Z"/>
</mask>
<path d="M96.9844 81.2901V73.2979H97.9379L102.195 79.7074V73.2979H103.158V81.2901H102.195L97.9379 74.8904V81.2901H96.9844Z" fill="#444040"/>
<path d="M96.9844 81.2901H95.651V82.6234H96.9844V81.2901ZM96.9844 73.2979V71.9645H95.651V73.2979H96.9844ZM97.9379 73.2979L99.0486 72.5602L98.653 71.9645H97.9379V73.2979ZM102.195 79.7074L101.084 80.445L103.528 84.1252V79.7074H102.195ZM102.195 73.2979V71.9645H100.861V73.2979H102.195ZM103.158 73.2979H104.491V71.9645H103.158V73.2979ZM103.158 81.2901V82.6234H104.491V81.2901H103.158ZM102.195 81.2901L101.084 82.0285L101.48 82.6234H102.195V81.2901ZM97.9379 74.8904L99.0481 74.152L96.6046 70.4782V74.8904H97.9379ZM97.9379 81.2901V82.6234H99.2713V81.2901H97.9379ZM96.9844 81.2901H98.3177V73.2979H96.9844H95.651V81.2901H96.9844ZM96.9844 73.2979V74.6312H97.9379V73.2979V71.9645H96.9844V73.2979ZM97.9379 73.2979L96.8272 74.0355L101.084 80.445L102.195 79.7074L103.305 78.9697L99.0486 72.5602L97.9379 73.2979ZM102.195 79.7074H103.528V73.2979H102.195H100.861V79.7074H102.195ZM102.195 73.2979V74.6312H103.158V73.2979V71.9645H102.195V73.2979ZM103.158 73.2979H101.825V81.2901H103.158H104.491V73.2979H103.158ZM103.158 81.2901V79.9568H102.195V81.2901V82.6234H103.158V81.2901ZM102.195 81.2901L103.305 80.5517L99.0481 74.152L97.9379 74.8904L96.8278 75.6288L101.084 82.0285L102.195 81.2901ZM97.9379 74.8904H96.6046V81.2901H97.9379H99.2713V74.8904H97.9379ZM97.9379 81.2901V79.9568H96.9844V81.2901V82.6234H97.9379V81.2901Z" fill="#E8E8E8" mask="url(#path-32-inside-7_2194_9308)"/>
<mask id="path-34-inside-8_2194_9308" fill="white">
<path d="M111.75 81.4277C111.007 81.4277 110.356 81.2556 109.793 80.9066C109.228 80.5601 108.791 80.0784 108.476 79.4615C108.166 78.8398 108.014 78.1221 108.014 77.3087C108.014 76.4976 108.171 75.78 108.486 75.1558C108.8 74.5266 109.248 74.04 109.833 73.691C110.415 73.3371 111.101 73.1602 111.887 73.1602C112.784 73.1602 113.531 73.3813 114.129 73.8188C114.731 74.2513 115.116 74.8486 115.289 75.608H114.188C114.074 75.1312 113.819 74.7503 113.421 74.4676C113.028 74.1875 112.516 74.0449 111.887 74.0449C111.302 74.0449 110.796 74.1776 110.363 74.4381C109.931 74.7011 109.592 75.0747 109.351 75.5588C109.108 76.0454 108.987 76.6279 108.987 77.3087C108.987 77.9845 109.105 78.567 109.341 79.0585C109.577 79.5451 109.904 79.9187 110.324 80.1792C110.742 80.4421 111.231 80.5724 111.789 80.5724C112.639 80.5724 113.283 80.3242 113.716 79.8253C114.148 79.3288 114.396 78.6432 114.463 77.7707H112.153V77.0236H115.436V81.29H114.561L114.482 79.9727C114.192 80.4397 113.839 80.7985 113.421 81.0541C113 81.3023 112.443 81.4277 111.75 81.4277Z"/>
</mask>
<path d="M111.75 81.4277C111.007 81.4277 110.356 81.2556 109.793 80.9066C109.228 80.5601 108.791 80.0784 108.476 79.4615C108.166 78.8398 108.014 78.1221 108.014 77.3087C108.014 76.4976 108.171 75.78 108.486 75.1558C108.8 74.5266 109.248 74.04 109.833 73.691C110.415 73.3371 111.101 73.1602 111.887 73.1602C112.784 73.1602 113.531 73.3813 114.129 73.8188C114.731 74.2513 115.116 74.8486 115.289 75.608H114.188C114.074 75.1312 113.819 74.7503 113.421 74.4676C113.028 74.1875 112.516 74.0449 111.887 74.0449C111.302 74.0449 110.796 74.1776 110.363 74.4381C109.931 74.7011 109.592 75.0747 109.351 75.5588C109.108 76.0454 108.987 76.6279 108.987 77.3087C108.987 77.9845 109.105 78.567 109.341 79.0585C109.577 79.5451 109.904 79.9187 110.324 80.1792C110.742 80.4421 111.231 80.5724 111.789 80.5724C112.639 80.5724 113.283 80.3242 113.716 79.8253C114.148 79.3288 114.396 78.6432 114.463 77.7707H112.153V77.0236H115.436V81.29H114.561L114.482 79.9727C114.192 80.4397 113.839 80.7985 113.421 81.0541C113 81.3023 112.443 81.4277 111.75 81.4277Z" fill="#444040"/>
<path d="M109.793 80.9066L110.496 79.7735L110.49 79.7699L109.793 80.9066ZM108.476 79.4615L107.282 80.056L107.288 80.0673L108.476 79.4615ZM108.486 75.1558L109.676 75.7558L109.678 75.752L108.486 75.1558ZM109.833 73.691L110.516 74.8361L110.525 74.8305L109.833 73.691ZM114.129 73.8188L113.341 74.8945L113.351 74.9017L114.129 73.8188ZM115.289 75.608V76.9413H116.958L116.589 75.3134L115.289 75.608ZM114.188 75.608L112.89 75.9156L113.133 76.9413H114.188V75.608ZM113.421 74.4676L112.647 75.5535L112.649 75.5549L113.421 74.4676ZM110.363 74.4381L109.676 73.2959L109.671 73.2988L110.363 74.4381ZM109.351 75.5588L110.543 76.1551L110.545 76.1527L109.351 75.5588ZM109.341 79.0585L108.139 79.6355L108.141 79.6402L109.341 79.0585ZM110.324 80.1792L111.034 79.0507L111.027 79.0459L110.324 80.1792ZM113.716 79.8253L112.71 78.9494L112.708 78.9518L113.716 79.8253ZM114.463 77.7707L115.792 77.8718L115.901 76.4374H114.463V77.7707ZM112.153 77.7707H110.819V79.104H112.153V77.7707ZM112.153 77.0236V75.6902H110.819V77.0236H112.153ZM115.436 77.0236H116.769V75.6902H115.436V77.0236ZM115.436 81.29V82.6234H116.769V81.29H115.436ZM114.561 81.29L113.23 81.3695L113.305 82.6234H114.561V81.29ZM114.482 79.9727L115.813 79.8933L115.563 75.705L113.35 79.2693L114.482 79.9727ZM113.421 81.0541L114.099 82.2021L114.108 82.1969L114.117 82.1915L113.421 81.0541ZM111.75 81.4277V80.0943C111.222 80.0943 110.821 79.9749 110.496 79.7735L109.793 80.9066L109.091 82.0398C109.891 82.5364 110.793 82.761 111.75 82.761V81.4277ZM109.793 80.9066L110.49 79.7699C110.146 79.5589 109.873 79.2664 109.664 78.8558L108.476 79.4615L107.288 80.0673C107.708 80.8905 108.31 81.5613 109.096 82.0434L109.793 80.9066ZM108.476 79.4615L109.669 78.8672C109.467 78.4616 109.347 77.9543 109.347 77.3087H108.014H106.681C106.681 78.29 106.865 79.218 107.282 80.0559L108.476 79.4615ZM108.014 77.3087H109.347C109.347 76.6726 109.47 76.1662 109.676 75.7558L108.486 75.1558L107.295 74.5557C106.873 75.3938 106.681 76.3226 106.681 77.3087H108.014ZM108.486 75.1558L109.678 75.752C109.883 75.3426 110.157 75.05 110.516 74.836L109.833 73.691L109.149 72.546C108.338 73.03 107.718 73.7106 107.293 74.5595L108.486 75.1558ZM109.833 73.691L110.525 74.8305C110.868 74.6221 111.306 74.4935 111.887 74.4935V73.1602V71.8268C110.895 71.8268 109.962 72.0521 109.14 72.5515L109.833 73.691ZM111.887 73.1602V74.4935C112.559 74.4935 113.015 74.6558 113.341 74.8944L114.129 73.8188L114.916 72.7432C114.048 72.1069 113.009 71.8268 111.887 71.8268V73.1602ZM114.129 73.8188L113.351 74.9017C113.672 75.1327 113.884 75.4412 113.988 75.9026L115.289 75.608L116.589 75.3134C116.349 74.2559 115.789 73.37 114.906 72.7359L114.129 73.8188ZM115.289 75.608V74.2746H114.188V75.608V76.9413H115.289V75.608ZM114.188 75.608L115.485 75.3003C115.298 74.5111 114.857 73.852 114.193 73.3804L113.421 74.4676L112.649 75.5549C112.781 75.6485 112.851 75.7512 112.89 75.9156L114.188 75.608ZM113.421 74.4676L114.194 73.3817C113.519 72.9002 112.715 72.7116 111.887 72.7116V74.0449V75.3782C112.318 75.3782 112.536 75.4747 112.647 75.5535L113.421 74.4676ZM111.887 74.0449V72.7116C111.093 72.7116 110.343 72.8942 109.676 73.296L110.363 74.4381L111.051 75.5803C111.249 75.461 111.511 75.3782 111.887 75.3782V74.0449ZM110.363 74.4381L109.671 73.2988C109.011 73.7 108.504 74.2683 108.157 74.965L109.351 75.5588L110.545 76.1527C110.68 75.881 110.851 75.7022 111.056 75.5774L110.363 74.4381ZM109.351 75.5588L108.158 74.9625C107.802 75.6761 107.654 76.4733 107.654 77.3087H108.987H110.32C110.32 76.7825 110.414 76.4148 110.543 76.1551L109.351 75.5588ZM108.987 77.3087H107.654C107.654 78.1379 107.799 78.9263 108.139 79.6355L109.341 79.0585L110.543 78.4815C110.412 78.2076 110.32 77.8311 110.32 77.3087H108.987ZM109.341 79.0585L108.141 79.6402C108.476 80.3303 108.965 80.9056 109.622 81.3124L110.324 80.1792L111.027 79.0459C110.842 78.9317 110.678 78.7599 110.541 78.4768L109.341 79.0585ZM110.324 80.1792L109.614 81.3076C110.273 81.7227 111.016 81.9057 111.789 81.9057V80.5724V79.2391C111.446 79.2391 111.211 79.1616 111.034 79.0508L110.324 80.1792ZM111.789 80.5724V81.9057C112.903 81.9057 113.967 81.571 114.723 80.6987L113.716 79.8253L112.708 78.9518C112.599 79.0774 112.375 79.2391 111.789 79.2391V80.5724ZM113.716 79.8253L114.721 80.7012C115.397 79.9254 115.711 78.9348 115.792 77.8718L114.463 77.7707L113.133 77.6696C113.081 78.3515 112.9 78.7323 112.71 78.9494L113.716 79.8253ZM114.463 77.7707V76.4374H112.153V77.7707V79.104H114.463V77.7707ZM112.153 77.7707H113.486V77.0236H112.153H110.819V77.7707H112.153ZM112.153 77.0236V78.3569H115.436V77.0236V75.6902H112.153V77.0236ZM115.436 77.0236H114.103V81.29H115.436H116.769V77.0236H115.436ZM115.436 81.29V79.9567H114.561V81.29V82.6234H115.436V81.29ZM114.561 81.29L115.892 81.2106L115.813 79.8933L114.482 79.9727L113.151 80.0522L113.23 81.3695L114.561 81.29ZM114.482 79.9727L113.35 79.2693C113.158 79.5785 112.947 79.7808 112.725 79.9167L113.421 81.0541L114.117 82.1915C114.73 81.8162 115.227 81.3008 115.615 80.6762L114.482 79.9727ZM113.421 81.0541L112.743 79.9061C112.595 79.9931 112.297 80.0943 111.75 80.0943V81.4277V82.761C112.588 82.761 113.406 82.6116 114.099 82.2021L113.421 81.0541Z" fill="#E8E8E8" mask="url(#path-34-inside-8_2194_9308)"/>
<mask id="path-36-inside-9_2194_9308" fill="white">
<path d="M36.2129 96.8624V88.8701H37.1665V96.8624H36.2129Z"/>
</mask>
<path d="M36.2129 96.8624V88.8701H37.1665V96.8624H36.2129Z" fill="#444040"/>
<path d="M36.2129 96.8624H34.8796V98.1957H36.2129V96.8624ZM36.2129 88.8701V87.5368H34.8796V88.8701H36.2129ZM37.1665 88.8701H38.4998V87.5368H37.1665V88.8701ZM37.1665 96.8624V98.1957H38.4998V96.8624H37.1665ZM36.2129 96.8624H37.5462V88.8701H36.2129H34.8796V96.8624H36.2129ZM36.2129 88.8701V90.2035H37.1665V88.8701V87.5368H36.2129V88.8701ZM37.1665 88.8701H35.8331V96.8624H37.1665H38.4998V88.8701H37.1665ZM37.1665 96.8624V95.529H36.2129V96.8624V98.1957H37.1665V96.8624Z" fill="#E8E8E8" mask="url(#path-36-inside-9_2194_9308)"/>
<mask id="path-38-inside-10_2194_9308" fill="white">
<path d="M42.3301 96.8624V88.8701H43.2836L47.5403 95.2796V88.8701H48.5037V96.8624H47.5403L43.2836 90.4627V96.8624H42.3301Z"/>
</mask>
<path d="M42.3301 96.8624V88.8701H43.2836L47.5403 95.2796V88.8701H48.5037V96.8624H47.5403L43.2836 90.4627V96.8624H42.3301Z" fill="#444040"/>
<path d="M42.3301 96.8624H40.9967V98.1957H42.3301V96.8624ZM42.3301 88.8701V87.5368H40.9967V88.8701H42.3301ZM43.2836 88.8701L44.3944 88.1325L43.9987 87.5368H43.2836V88.8701ZM47.5403 95.2796L46.4296 96.0173L48.8736 99.6975V95.2796H47.5403ZM47.5403 88.8701V87.5368H46.2069V88.8701H47.5403ZM48.5037 88.8701H49.837V87.5368H48.5037V88.8701ZM48.5037 96.8624V98.1957H49.837V96.8624H48.5037ZM47.5403 96.8624L46.4301 97.6008L46.8258 98.1957H47.5403V96.8624ZM43.2836 90.4627L44.3938 89.7242L41.9503 86.0505V90.4627H43.2836ZM43.2836 96.8624V98.1957H44.617V96.8624H43.2836ZM42.3301 96.8624H43.6634V88.8701H42.3301H40.9967V96.8624H42.3301ZM42.3301 88.8701V90.2035H43.2836V88.8701V87.5368H42.3301V88.8701ZM43.2836 88.8701L42.1729 89.6078L46.4296 96.0173L47.5403 95.2796L48.651 94.542L44.3944 88.1325L43.2836 88.8701ZM47.5403 95.2796H48.8736V88.8701H47.5403H46.2069V95.2796H47.5403ZM47.5403 88.8701V90.2035H48.5037V88.8701V87.5368H47.5403V88.8701ZM48.5037 88.8701H47.1703V96.8624H48.5037H49.837V88.8701H48.5037ZM48.5037 96.8624V95.529H47.5403V96.8624V98.1957H48.5037V96.8624ZM47.5403 96.8624L48.6505 96.1239L44.3938 89.7242L43.2836 90.4627L42.1735 91.2011L46.4301 97.6008L47.5403 96.8624ZM43.2836 90.4627H41.9503V96.8624H43.2836H44.617V90.4627H43.2836ZM43.2836 96.8624V95.529H42.3301V96.8624V98.1957H43.2836V96.8624Z" fill="#E8E8E8" mask="url(#path-38-inside-10_2194_9308)"/>
<mask id="path-40-inside-11_2194_9308" fill="white">
<path d="M53.665 96.8624V88.8701H56.1227C57.5235 88.8701 58.5557 89.2314 59.2193 89.9515C59.8878 90.6667 60.222 91.6473 60.222 92.8908C60.222 94.1172 59.8878 95.0879 59.2193 95.8007C58.5557 96.5085 57.5235 96.8624 56.1227 96.8624H53.665ZM54.6186 96.0661H56.0932C56.8723 96.0661 57.4916 95.9383 57.9512 95.6827C58.4083 95.4271 58.7376 95.0634 58.9342 94.5915C59.1308 94.1147 59.2291 93.547 59.2291 92.8908C59.2291 92.2223 59.1308 91.6497 58.9342 91.1705C58.7376 90.6937 58.4083 90.325 57.9512 90.0694C57.4916 89.8089 56.8723 89.6762 56.0932 89.6762H54.6186V96.0661Z"/>
</mask>
<path d="M53.665 96.8624V88.8701H56.1227C57.5235 88.8701 58.5557 89.2314 59.2193 89.9515C59.8878 90.6667 60.222 91.6473 60.222 92.8908C60.222 94.1172 59.8878 95.0879 59.2193 95.8007C58.5557 96.5085 57.5235 96.8624 56.1227 96.8624H53.665ZM54.6186 96.0661H56.0932C56.8723 96.0661 57.4916 95.9383 57.9512 95.6827C58.4083 95.4271 58.7376 95.0634 58.9342 94.5915C59.1308 94.1147 59.2291 93.547 59.2291 92.8908C59.2291 92.2223 59.1308 91.6497 58.9342 91.1705C58.7376 90.6937 58.4083 90.325 57.9512 90.0694C57.4916 89.8089 56.8723 89.6762 56.0932 89.6762H54.6186V96.0661Z" fill="#444040"/>
<path d="M53.665 96.8624H52.3317V98.1957H53.665V96.8624ZM53.665 88.8701V87.5368H52.3317V88.8701H53.665ZM59.2193 89.9515L58.2388 90.855L58.2452 90.862L59.2193 89.9515ZM59.2193 95.8007L58.2468 94.8885L58.2466 94.8887L59.2193 95.8007ZM54.6186 96.0661H53.2853V97.3994H54.6186V96.0661ZM57.9512 95.6827L58.5992 96.848L58.6019 96.8465L57.9512 95.6827ZM58.9342 94.5915L60.165 95.1043L60.1669 95.0998L58.9342 94.5915ZM58.9342 91.1705L60.1678 90.6644L60.1669 90.6622L58.9342 91.1705ZM57.9512 90.0694L57.2936 91.2294L57.3005 91.2332L57.9512 90.0694ZM54.6186 89.6762V88.3429H53.2853V89.6762H54.6186ZM53.665 96.8624H54.9984V88.8701H53.665H52.3317V96.8624H53.665ZM53.665 88.8701V90.2035H56.1227V88.8701V87.5368H53.665V88.8701ZM56.1227 88.8701V90.2035C57.3134 90.2035 57.9199 90.509 58.2388 90.855L59.2193 89.9515L60.1998 89.0479C59.1915 87.9538 57.7337 87.5368 56.1227 87.5368V88.8701ZM59.2193 89.9515L58.2452 90.862C58.625 91.2683 58.8887 91.8899 58.8887 92.8908H60.222H61.5554C61.5554 91.4046 61.1505 90.065 60.1934 89.041L59.2193 89.9515ZM60.222 92.8908H58.8887C58.8887 93.869 58.6281 94.482 58.2468 94.8885L59.2193 95.8007L60.1918 96.7128C61.1475 95.6939 61.5554 94.3653 61.5554 92.8908H60.222ZM59.2193 95.8007L58.2466 94.8887C57.9296 95.2269 57.3208 95.529 56.1227 95.529V96.8624V98.1957C57.7263 98.1957 59.1819 97.7901 60.192 96.7126L59.2193 95.8007ZM56.1227 96.8624V95.529H53.665V96.8624V98.1957H56.1227V96.8624ZM54.6186 96.0661V97.3994H56.0932V96.0661V94.7328H54.6186V96.0661ZM56.0932 96.0661V97.3994C56.9978 97.3994 57.8686 97.2543 58.5992 96.8479L57.9512 95.6827L57.3031 94.5174C57.1146 94.6223 56.7467 94.7328 56.0932 94.7328V96.0661ZM57.9512 95.6827L58.6019 96.8465C59.3098 96.4506 59.8491 95.8625 60.165 95.1043L58.9342 94.5915L57.7035 94.0787C57.6261 94.2643 57.5068 94.4036 57.3005 94.5189L57.9512 95.6827ZM58.9342 94.5915L60.1669 95.0998C60.4455 94.4242 60.5625 93.6754 60.5625 92.8908H59.2291H57.8958C57.8958 93.4186 57.8162 93.8053 57.7016 94.0832L58.9342 94.5915ZM59.2291 92.8908H60.5625C60.5625 92.0966 60.4463 91.3432 60.1678 90.6644L58.9342 91.1705L57.7007 91.6765C57.8154 91.9562 57.8958 92.3481 57.8958 92.8908H59.2291ZM58.9342 91.1705L60.1669 90.6622C59.8536 89.9026 59.3166 89.3053 58.6019 88.9057L57.9512 90.0694L57.3005 91.2332C57.5 91.3448 57.6216 91.4848 57.7016 91.6788L58.9342 91.1705ZM57.9512 90.0694L58.6087 88.9095C57.878 88.4953 57.0051 88.3429 56.0932 88.3429V89.6762V91.0096C56.7394 91.0096 57.1052 91.1225 57.2937 91.2294L57.9512 90.0694ZM56.0932 89.6762V88.3429H54.6186V89.6762V91.0096H56.0932V89.6762ZM54.6186 89.6762H53.2853V96.0661H54.6186H55.9519V89.6762H54.6186Z" fill="#E8E8E8" mask="url(#path-40-inside-11_2194_9308)"/>
<mask id="path-42-inside-12_2194_9308" fill="white">
<path d="M67.97 97C67.4195 97 66.9206 96.8919 66.4757 96.6756C66.0284 96.4593 65.6721 96.1226 65.4042 95.663C65.1412 95.2059 65.011 94.621 65.011 93.9132V88.8701H65.9646V93.9329C65.9646 94.707 66.1513 95.2698 66.5249 95.6237C66.8985 95.9727 67.3851 96.1447 67.9896 96.1447C68.5918 96.1447 69.0735 95.9727 69.4347 95.6237C69.8009 95.2698 69.9853 94.707 69.9853 93.9329V88.8701H70.9486V93.9132C70.9486 94.621 70.8135 95.2059 70.5456 95.663C70.2753 96.1226 69.9164 96.4593 69.4642 96.6756C69.0169 96.8919 68.5205 97 67.97 97Z"/>
</mask>
<path d="M67.97 97C67.4195 97 66.9206 96.8919 66.4757 96.6756C66.0284 96.4593 65.6721 96.1226 65.4042 95.663C65.1412 95.2059 65.011 94.621 65.011 93.9132V88.8701H65.9646V93.9329C65.9646 94.707 66.1513 95.2698 66.5249 95.6237C66.8985 95.9727 67.3851 96.1447 67.9896 96.1447C68.5918 96.1447 69.0735 95.9727 69.4347 95.6237C69.8009 95.2698 69.9853 94.707 69.9853 93.9329V88.8701H70.9486V93.9132C70.9486 94.621 70.8135 95.2059 70.5456 95.663C70.2753 96.1226 69.9164 96.4593 69.4642 96.6756C69.0169 96.8919 68.5205 97 67.97 97Z" fill="#444040"/>
<path d="M66.4757 96.6756L67.0587 95.4765L67.0561 95.4752L66.4757 96.6756ZM65.4042 95.663L64.2484 96.3279L64.2523 96.3345L65.4042 95.663ZM65.011 88.8701V87.5368H63.6777V88.8701H65.011ZM65.9646 88.8701H67.2979V87.5368H65.9646V88.8701ZM66.5249 95.6237L65.6079 96.5917L65.6147 96.598L66.5249 95.6237ZM69.4347 95.6237L70.3611 96.5827L70.3613 96.5825L69.4347 95.6237ZM69.9853 88.8701V87.5368H68.6519V88.8701H69.9853ZM70.9486 88.8701H72.282V87.5368H70.9486V88.8701ZM70.5456 95.663L71.6948 96.3391L71.696 96.3372L70.5456 95.663ZM69.4642 96.6756L68.889 95.4727L68.8838 95.4752L69.4642 96.6756ZM67.97 97V95.6667C67.5979 95.6667 67.3019 95.5947 67.0587 95.4765L66.4757 96.6756L65.8927 97.8747C66.5393 98.189 67.241 98.3333 67.97 98.3333V97ZM66.4757 96.6756L67.0561 95.4752C66.8648 95.3827 66.7003 95.2389 66.5561 94.9916L65.4042 95.663L64.2523 96.3345C64.6439 97.0064 65.1921 97.5359 65.8953 97.876L66.4757 96.6756ZM65.4042 95.663L66.5599 94.9982C66.4476 94.8029 66.3443 94.4677 66.3443 93.9132H65.011H63.6777C63.6777 94.7743 63.8348 95.6089 64.2485 96.3279L65.4042 95.663ZM65.011 93.9132H66.3443V88.8701H65.011H63.6777V93.9132H65.011ZM65.011 88.8701V90.2035H65.9646V88.8701V87.5368H65.011V88.8701ZM65.9646 88.8701H64.6312V93.9329H65.9646H67.2979V88.8701H65.9646ZM65.9646 93.9329H64.6312C64.6312 94.8901 64.8598 95.883 65.6079 96.5917L66.5249 95.6237L67.4419 94.6558C67.4375 94.6517 67.405 94.6213 67.3702 94.5163C67.333 94.4039 67.2979 94.2182 67.2979 93.9329H65.9646ZM66.5249 95.6237L65.6147 96.598C66.2812 97.2207 67.1158 97.4781 67.9896 97.4781V96.1447V94.8114C67.6543 94.8114 67.5158 94.7247 67.4351 94.6494L66.5249 95.6237ZM67.9896 96.1447V97.4781C68.8595 97.4781 69.7003 97.221 70.3611 96.5827L69.4347 95.6237L68.5084 94.6647C68.4466 94.7244 68.324 94.8114 67.9896 94.8114V96.1447ZM69.4347 95.6237L70.3613 96.5825C71.0947 95.8737 71.3186 94.8857 71.3186 93.9329H69.9853H68.6519C68.6519 94.2195 68.6171 94.4076 68.5797 94.5225C68.5444 94.6306 68.5114 94.6618 68.5082 94.665L69.4347 95.6237ZM69.9853 93.9329H71.3186V88.8701H69.9853H68.6519V93.9329H69.9853ZM69.9853 88.8701V90.2035H70.9486V88.8701V87.5368H69.9853V88.8701ZM70.9486 88.8701H69.6153V93.9132H70.9486H72.282V88.8701H70.9486ZM70.9486 93.9132H69.6153C69.6153 94.4599 69.51 94.793 69.3952 94.9889L70.5456 95.663L71.696 96.3372C72.1169 95.6188 72.282 94.7821 72.282 93.9132H70.9486ZM70.5456 95.663L69.3963 94.987C69.2508 95.2344 69.0848 95.3791 68.889 95.4727L69.4642 96.6756L70.0395 97.8784C70.7481 97.5396 71.2997 97.0108 71.6948 96.3391L70.5456 95.663ZM69.4642 96.6756L68.8838 95.4752C68.6355 95.5953 68.3405 95.6667 67.97 95.6667V97V98.3333C68.7005 98.3333 69.3984 98.1884 70.0446 97.876L69.4642 96.6756Z" fill="#E8E8E8" mask="url(#path-42-inside-12_2194_9308)"/>
<mask id="path-44-inside-13_2194_9308" fill="white">
<path d="M78.5835 96.999C77.9937 96.999 77.4825 96.8933 77.05 96.6844C76.6174 96.4681 76.2832 96.1707 76.0473 95.7898C75.8113 95.4113 75.6934 94.9689 75.6934 94.4627H76.6961C76.6961 94.7772 76.7673 95.0672 76.9123 95.3278C77.0549 95.5907 77.2662 95.7996 77.5415 95.9569C77.8217 96.1142 78.1707 96.1928 78.5835 96.1928C79.1193 96.1928 79.5371 96.065 79.832 95.8095C80.1319 95.5489 80.2842 95.2196 80.2842 94.8264C80.2842 94.5118 80.2154 94.2562 80.0778 94.0596C79.9402 93.863 79.7534 93.7057 79.5174 93.5877C79.2864 93.4649 79.021 93.3567 78.7212 93.2633C78.4189 93.1724 78.1068 93.0716 77.7873 92.9586C77.1704 92.7423 76.7108 92.4769 76.411 92.1623C76.1161 91.8477 75.9686 91.4349 75.9686 90.9237C75.9612 90.4985 76.0595 90.1225 76.2635 89.7931C76.4651 89.4589 76.7551 89.2009 77.1286 89.0165C77.5071 88.8273 77.9568 88.7314 78.4754 88.7314C78.9866 88.7314 79.429 88.8273 79.8025 89.0165C80.181 89.2082 80.4759 89.4737 80.6873 89.8128C80.8962 90.147 81.0043 90.528 81.0117 90.9532H80.009C80.009 90.732 79.95 90.5108 79.832 90.2945C79.719 90.0782 79.5469 89.9013 79.311 89.7637C79.08 89.626 78.7924 89.5572 78.4459 89.5572C78.0134 89.5523 77.6546 89.6629 77.3744 89.8915C77.0991 90.1151 76.9615 90.4297 76.9615 90.8352C76.9615 91.1768 77.0549 91.4398 77.2466 91.6216C77.4432 91.806 77.7135 91.9559 78.0625 92.0738C78.4164 92.1918 78.8219 92.327 79.2815 92.4769C79.66 92.6145 80.0016 92.7767 80.3039 92.9586C80.6111 93.1429 80.8495 93.3788 81.0215 93.6664C81.1911 93.9564 81.2771 94.325 81.2771 94.7772C81.2771 95.1582 81.1739 95.5195 80.9724 95.8586C80.7758 96.1928 80.4759 96.4681 80.0778 96.6844C79.6846 96.8933 79.1857 96.999 78.5835 96.999Z"/>
</mask>
<path d="M78.5835 96.999C77.9937 96.999 77.4825 96.8933 77.05 96.6844C76.6174 96.4681 76.2832 96.1707 76.0473 95.7898C75.8113 95.4113 75.6934 94.9689 75.6934 94.4627H76.6961C76.6961 94.7772 76.7673 95.0672 76.9123 95.3278C77.0549 95.5907 77.2662 95.7996 77.5415 95.9569C77.8217 96.1142 78.1707 96.1928 78.5835 96.1928C79.1193 96.1928 79.5371 96.065 79.832 95.8095C80.1319 95.5489 80.2842 95.2196 80.2842 94.8264C80.2842 94.5118 80.2154 94.2562 80.0778 94.0596C79.9402 93.863 79.7534 93.7057 79.5174 93.5877C79.2864 93.4649 79.021 93.3567 78.7212 93.2633C78.4189 93.1724 78.1068 93.0716 77.7873 92.9586C77.1704 92.7423 76.7108 92.4769 76.411 92.1623C76.1161 91.8477 75.9686 91.4349 75.9686 90.9237C75.9612 90.4985 76.0595 90.1225 76.2635 89.7931C76.4651 89.4589 76.7551 89.2009 77.1286 89.0165C77.5071 88.8273 77.9568 88.7314 78.4754 88.7314C78.9866 88.7314 79.429 88.8273 79.8025 89.0165C80.181 89.2082 80.4759 89.4737 80.6873 89.8128C80.8962 90.147 81.0043 90.528 81.0117 90.9532H80.009C80.009 90.732 79.95 90.5108 79.832 90.2945C79.719 90.0782 79.5469 89.9013 79.311 89.7637C79.08 89.626 78.7924 89.5572 78.4459 89.5572C78.0134 89.5523 77.6546 89.6629 77.3744 89.8915C77.0991 90.1151 76.9615 90.4297 76.9615 90.8352C76.9615 91.1768 77.0549 91.4398 77.2466 91.6216C77.4432 91.806 77.7135 91.9559 78.0625 92.0738C78.4164 92.1918 78.8219 92.327 79.2815 92.4769C79.66 92.6145 80.0016 92.7767 80.3039 92.9586C80.6111 93.1429 80.8495 93.3788 81.0215 93.6664C81.1911 93.9564 81.2771 94.325 81.2771 94.7772C81.2771 95.1582 81.1739 95.5195 80.9724 95.8586C80.7758 96.1928 80.4759 96.4681 80.0778 96.6844C79.6846 96.8933 79.1857 96.999 78.5835 96.999Z" fill="#444040"/>
<path d="M77.05 96.6844L76.4537 97.8769L76.4619 97.881L76.4701 97.885L77.05 96.6844ZM76.0473 95.7898L77.1808 95.0877L77.1787 95.0844L76.0473 95.7898ZM75.6934 94.4627V93.1293H74.36V94.4627H75.6934ZM76.6961 94.4627H78.0294V93.1293H76.6961V94.4627ZM76.9123 95.3278L78.0845 94.6924L78.081 94.6858L78.0774 94.6793L76.9123 95.3278ZM77.5415 95.9569L76.88 97.1146L76.8888 97.1196L77.5415 95.9569ZM79.832 95.8095L80.7053 96.817L80.7065 96.8159L79.832 95.8095ZM79.5174 93.5877L78.8913 94.7649L78.9061 94.7728L78.9212 94.7803L79.5174 93.5877ZM78.7212 93.2633L79.1177 91.9903L79.1053 91.9865L78.7212 93.2633ZM77.7873 92.9586L78.232 91.7016L78.2284 91.7003L77.7873 92.9586ZM76.411 92.1623L75.4382 93.0743L75.4458 93.0822L76.411 92.1623ZM75.9686 90.9237H77.3019V90.9121L77.3017 90.9005L75.9686 90.9237ZM76.2635 89.7931L77.397 90.4952L77.4012 90.4885L77.4054 90.4816L76.2635 89.7931ZM77.1286 89.0165L77.7186 90.2122L77.7249 90.2091L77.1286 89.0165ZM79.8025 89.0165L79.2 90.206L79.2001 90.206L79.8025 89.0165ZM80.6873 89.8128L79.5557 90.518L79.5566 90.5195L80.6873 89.8128ZM81.0117 90.9532V92.2865H82.3684L82.3448 90.93L81.0117 90.9532ZM80.009 90.9532H78.6756V92.2865H80.009V90.9532ZM79.832 90.2945L78.6504 90.9122L78.6559 90.9226L78.6615 90.933L79.832 90.2945ZM79.311 89.7637L78.6286 90.9092L78.6392 90.9154L79.311 89.7637ZM78.4459 89.5572L78.4308 90.8905L78.4383 90.8905H78.4459V89.5572ZM77.3744 89.8915L78.2152 90.9263L78.2172 90.9246L77.3744 89.8915ZM77.2466 91.6216L76.3289 92.5889L76.3347 92.5943L77.2466 91.6216ZM78.0625 92.0738L77.6356 93.337L77.6409 93.3387L78.0625 92.0738ZM79.2815 92.4769L79.7372 91.2238L79.7162 91.2162L79.695 91.2093L79.2815 92.4769ZM80.3039 92.9586L79.6165 94.1011L79.6179 94.1019L80.3039 92.9586ZM81.0215 93.6664L82.1726 92.9933L82.1657 92.9818L81.0215 93.6664ZM80.9724 95.8586L79.8261 95.1775L79.8231 95.1826L80.9724 95.8586ZM80.0778 96.6844L80.7034 97.8619L80.7142 97.856L80.0778 96.6844ZM78.5835 96.999V95.6656C78.152 95.6656 77.8468 95.5885 77.6298 95.4837L77.05 96.6844L76.4701 97.885C77.1183 98.198 77.8355 98.3323 78.5835 98.3323V96.999ZM77.05 96.6844L77.6463 95.4918C77.4148 95.3761 77.2753 95.2403 77.1808 95.0877L76.0473 95.7898L74.9137 96.4918C75.2911 97.1011 75.82 97.5601 76.4537 97.8769L77.05 96.6844ZM76.0473 95.7898L77.1787 95.0844C77.0919 94.9451 77.0267 94.7541 77.0267 94.4627H75.6934H74.36C74.36 95.1838 74.5308 95.8775 74.9158 96.4951L76.0473 95.7898ZM75.6934 94.4627V95.796H76.6961V94.4627V93.1293H75.6934V94.4627ZM76.6961 94.4627H75.3627C75.3627 94.9855 75.4832 95.5017 75.7473 95.9762L76.9123 95.3278L78.0774 94.6793C78.0515 94.6328 78.0294 94.569 78.0294 94.4627H76.6961ZM76.9123 95.3278L75.7402 95.9632C76.0119 96.4645 76.41 96.846 76.88 97.1146L77.5415 95.9569L78.203 94.7993C78.1225 94.7532 78.0979 94.717 78.0845 94.6924L76.9123 95.3278ZM77.5415 95.9569L76.8888 97.1196C77.4184 97.4169 78.0073 97.5262 78.5835 97.5262V96.1928V94.8595C78.334 94.8595 78.225 94.8115 78.1942 94.7943L77.5415 95.9569ZM78.5835 96.1928V97.5262C79.3185 97.5262 80.0896 97.3506 80.7053 96.817L79.832 95.8095L78.9588 94.8019C78.9846 94.7795 78.9201 94.8595 78.5835 94.8595V96.1928ZM79.832 95.8095L80.7065 96.8159C81.2919 96.3073 81.6176 95.6134 81.6176 94.8264H80.2842H78.9509C78.9509 94.8382 78.9498 94.8403 78.9509 94.835C78.9521 94.8293 78.9548 94.8202 78.9596 94.8098C78.9643 94.7995 78.969 94.7927 78.9709 94.7902C78.9727 94.7879 78.9695 94.7925 78.9575 94.803L79.832 95.8095ZM80.2842 94.8264H81.6176C81.6176 94.3225 81.5068 93.776 81.1701 93.295L80.0778 94.0596L78.9855 94.8242C78.9717 94.8046 78.9619 94.7865 78.9552 94.7719C78.9486 94.7574 78.9458 94.7479 78.9451 94.7454C78.944 94.7413 78.9509 94.7649 78.9509 94.8264H80.2842ZM80.0778 94.0596L81.1701 93.295C80.893 92.8991 80.5279 92.6023 80.1137 92.3952L79.5174 93.5877L78.9212 94.7803C78.9526 94.796 78.9688 94.8083 78.9756 94.8141C78.982 94.8194 78.9842 94.8224 78.9855 94.8242L80.0778 94.0596ZM79.5174 93.5877L80.1436 92.4106C79.8264 92.2418 79.4817 92.1037 79.1177 91.9903L78.7212 93.2633L78.3247 94.5363C78.5603 94.6097 78.7465 94.6879 78.8913 94.7649L79.5174 93.5877ZM78.7212 93.2633L79.1053 91.9865C78.8207 91.9009 78.529 91.8067 78.232 91.7016L77.7873 92.9586L77.3425 94.2156C77.6845 94.3366 78.0171 94.4439 78.3371 94.5402L78.7212 93.2633ZM77.7873 92.9586L78.2284 91.7003C77.7174 91.5212 77.475 91.3461 77.3761 91.2424L76.411 92.1623L75.4458 93.0822C75.9466 93.6076 76.6234 93.9634 77.3461 94.2168L77.7873 92.9586ZM76.411 92.1623L77.3837 91.2504C77.3625 91.2277 77.3019 91.163 77.3019 90.9237H75.9686H74.6353C74.6353 91.7067 74.8697 92.4677 75.4383 93.0742L76.411 92.1623ZM75.9686 90.9237L77.3017 90.9005C77.2984 90.7061 77.3405 90.5865 77.397 90.4952L76.2635 89.7931L75.13 89.091C74.7786 89.6584 74.6241 90.2909 74.6355 90.9468L75.9686 90.9237ZM76.2635 89.7931L77.4054 90.4816C77.4632 90.3857 77.5519 90.2945 77.7186 90.2122L77.1286 89.0165L76.5386 87.8208C75.9582 88.1072 75.4669 88.5322 75.1217 89.1047L76.2635 89.7931ZM77.1286 89.0165L77.7249 90.2091C77.8827 90.1302 78.12 90.0648 78.4754 90.0648V88.7314V87.3981C77.7937 87.3981 77.1315 87.5244 76.5323 87.824L77.1286 89.0165ZM78.4754 88.7314V90.0648C78.8201 90.0648 79.048 90.129 79.2 90.206L79.8025 89.0165L80.4051 87.8271C79.8099 87.5256 79.1531 87.3981 78.4754 87.3981V88.7314ZM79.8025 89.0165L79.2001 90.206C79.3752 90.2947 79.4812 90.3985 79.5557 90.518L80.6873 89.8128L81.8189 89.1076C81.4707 88.5489 80.9868 88.1218 80.405 87.8271L79.8025 89.0165ZM80.6873 89.8128L79.5566 90.5195C79.6267 90.6317 79.675 90.7725 79.6786 90.9763L81.0117 90.9532L82.3448 90.93C82.3336 90.2835 82.1656 89.6624 81.818 89.1061L80.6873 89.8128ZM81.0117 90.9532V89.6198H80.009V90.9532V92.2865H81.0117V90.9532ZM80.009 90.9532H81.3423C81.3423 90.4868 81.2163 90.0478 81.0026 89.656L79.832 90.2945L78.6615 90.933C78.6736 90.9551 78.6767 90.9665 78.6769 90.9673C78.6771 90.9679 78.6767 90.9667 78.6763 90.9638C78.6759 90.9609 78.6756 90.9573 78.6756 90.9532H80.009ZM79.832 90.2945L81.0137 89.6768C80.7737 89.2178 80.4149 88.864 79.9828 88.6119L79.311 89.7637L78.6392 90.9154C78.6516 90.9226 78.659 90.9279 78.6626 90.9307C78.6662 90.9335 78.6666 90.9341 78.6649 90.9324C78.6632 90.9307 78.6605 90.9276 78.6574 90.9234C78.6544 90.9192 78.652 90.9152 78.6504 90.9122L79.832 90.2945ZM79.311 89.7637L79.9934 88.6182C79.5052 88.3273 78.9657 88.2239 78.4459 88.2239V89.5572V90.8905C78.6192 90.8905 78.6548 90.9247 78.6286 90.9091L79.311 89.7637ZM78.4459 89.5572L78.4611 88.224C77.7855 88.2163 77.1025 88.3925 76.5316 88.8583L77.3744 89.8915L78.2172 90.9246C78.2193 90.9229 78.2258 90.9172 78.249 90.91C78.2751 90.9018 78.3317 90.8893 78.4308 90.8905L78.4459 89.5572ZM77.3744 89.8915L76.5336 88.8566C75.8997 89.3717 75.6282 90.0929 75.6282 90.8352H76.9615H78.2948C78.2948 90.7835 78.3033 90.7906 78.2863 90.8295C78.2781 90.8483 78.2664 90.8686 78.2517 90.8878C78.237 90.9068 78.2235 90.9195 78.2152 90.9263L77.3744 89.8915ZM76.9615 90.8352H75.6282C75.6282 91.4191 75.7939 92.0813 76.3289 92.5889L77.2466 91.6216L78.1643 90.6543C78.2292 90.716 78.268 90.785 78.2864 90.836C78.3023 90.88 78.2948 90.8874 78.2948 90.8352H76.9615ZM77.2466 91.6216L76.3347 92.5943C76.7112 92.9474 77.168 93.1789 77.6356 93.337L78.0625 92.0738L78.4895 90.8107C78.259 90.7328 78.1752 90.6645 78.1585 90.6489L77.2466 91.6216ZM78.0625 92.0738L77.6409 93.3387C77.9946 93.4567 78.4039 93.5931 78.868 93.7445L79.2815 92.4769L79.695 91.2093C79.24 91.0609 78.8382 90.9269 78.4842 90.8089L78.0625 92.0738ZM79.2815 92.4769L78.8259 93.7299C79.1308 93.8408 79.3939 93.9672 79.6165 94.1011L80.3039 92.9586L80.9913 91.8161C80.6093 91.5863 80.1892 91.3882 79.7372 91.2238L79.2815 92.4769ZM80.3039 92.9586L79.6179 94.1019C79.7483 94.1801 79.8245 94.2627 79.8773 94.3509L81.0215 93.6664L82.1657 92.9818C81.8744 92.495 81.4739 92.1057 80.9899 91.8153L80.3039 92.9586ZM81.0215 93.6664L79.8705 94.3394C79.8881 94.3695 79.9438 94.4875 79.9438 94.7772H81.2771H82.6105C82.6105 94.1626 82.4941 93.5432 82.1725 92.9933L81.0215 93.6664ZM81.2771 94.7772H79.9438C79.9438 94.9048 79.9124 95.0323 79.8261 95.1775L80.9724 95.8586L82.1186 96.5397C82.4354 96.0066 82.6105 95.4116 82.6105 94.7772H81.2771ZM80.9724 95.8586L79.8231 95.1826C79.7704 95.2722 79.6666 95.3904 79.4414 95.5127L80.0778 96.6844L80.7142 97.856C81.2852 97.5458 81.7811 97.1135 82.1216 96.5346L80.9724 95.8586ZM80.0778 96.6844L79.4523 95.5069C79.3062 95.5845 79.039 95.6656 78.5835 95.6656V96.999V98.3323C79.3323 98.3323 80.063 98.2021 80.7033 97.8619L80.0778 96.6844Z" fill="#E8E8E8" mask="url(#path-44-inside-13_2194_9308)"/>
<mask id="path-46-inside-14_2194_9308" fill="white">
<path d="M87.9727 96.8624V89.6566H85.5938V88.8701H91.3151V89.6566H88.9361V96.8624H87.9727Z"/>
</mask>
<path d="M87.9727 96.8624V89.6566H85.5938V88.8701H91.3151V89.6566H88.9361V96.8624H87.9727Z" fill="#444040"/>
<path d="M87.9727 96.8624H86.6394V98.1957H87.9727V96.8624ZM87.9727 89.6566H89.3061V88.3232H87.9727V89.6566ZM85.5938 89.6566H84.2604V90.9899H85.5938V89.6566ZM85.5938 88.8701V87.5368H84.2604V88.8701H85.5938ZM91.3151 88.8701H92.6485V87.5368H91.3151V88.8701ZM91.3151 89.6566V90.9899H92.6485V89.6566H91.3151ZM88.9361 89.6566V88.3232H87.6028V89.6566H88.9361ZM88.9361 96.8624V98.1957H90.2695V96.8624H88.9361ZM87.9727 96.8624H89.3061V89.6566H87.9727H86.6394V96.8624H87.9727ZM87.9727 89.6566V88.3232H85.5938V89.6566V90.9899H87.9727V89.6566ZM85.5938 89.6566H86.9271V88.8701H85.5938H84.2604V89.6566H85.5938ZM85.5938 88.8701V90.2035H91.3151V88.8701V87.5368H85.5938V88.8701ZM91.3151 88.8701H89.9818V89.6566H91.3151H92.6485V88.8701H91.3151ZM91.3151 89.6566V88.3232H88.9361V89.6566V90.9899H91.3151V89.6566ZM88.9361 89.6566H87.6028V96.8624H88.9361H90.2695V89.6566H88.9361ZM88.9361 96.8624V95.529H87.9727V96.8624V98.1957H88.9361V96.8624Z" fill="#E8E8E8" mask="url(#path-46-inside-14_2194_9308)"/>
<mask id="path-48-inside-15_2194_9308" fill="white">
<path d="M95.9688 96.8624V88.8701H98.5444C99.1735 88.8701 99.6847 88.9758 100.078 89.1847C100.471 89.3887 100.761 89.6713 100.953 90.0301C101.142 90.384 101.238 90.7772 101.238 91.2098C101.238 91.7161 101.103 92.1707 100.835 92.5762C100.565 92.9768 100.147 93.2619 99.5766 93.4315L101.317 96.8624H100.186L98.5738 93.5593H96.9223V96.8624H95.9688ZM96.9223 92.8122H98.4755C99.09 92.8122 99.5397 92.6647 99.8223 92.3698C100.103 92.07 100.245 91.6866 100.245 91.2196C100.245 90.7478 100.107 90.3742 99.8322 90.0989C99.5569 89.8237 99.0998 89.6861 98.4657 89.6861H96.9223V92.8122Z"/>
</mask>
<path d="M95.9688 96.8624V88.8701H98.5444C99.1735 88.8701 99.6847 88.9758 100.078 89.1847C100.471 89.3887 100.761 89.6713 100.953 90.0301C101.142 90.384 101.238 90.7772 101.238 91.2098C101.238 91.7161 101.103 92.1707 100.835 92.5762C100.565 92.9768 100.147 93.2619 99.5766 93.4315L101.317 96.8624H100.186L98.5738 93.5593H96.9223V96.8624H95.9688ZM96.9223 92.8122H98.4755C99.09 92.8122 99.5397 92.6647 99.8223 92.3698C100.103 92.07 100.245 91.6866 100.245 91.2196C100.245 90.7478 100.107 90.3742 99.8322 90.0989C99.5569 89.8237 99.0998 89.6861 98.4657 89.6861H96.9223V92.8122Z" fill="#444040"/>
<path d="M95.9688 96.8624H94.6354V98.1957H95.9688V96.8624ZM95.9688 88.8701V87.5368H94.6354V88.8701H95.9688ZM100.078 89.1847L99.4524 90.3622L99.464 90.3683L100.078 89.1847ZM100.953 90.0301L99.7768 90.6584L99.7771 90.6588L100.953 90.0301ZM100.835 92.5762L101.94 93.3221L101.947 93.3112L100.835 92.5762ZM99.5766 93.4315L99.1965 92.1535L97.6645 92.6091L98.3874 94.0346L99.5766 93.4315ZM101.317 96.8624V98.1957H103.488L102.506 96.2593L101.317 96.8624ZM100.186 96.8624L98.9878 97.4472L99.3532 98.1957H100.186V96.8624ZM98.5738 93.5593L99.7721 92.9745L99.4067 92.226H98.5738V93.5593ZM96.9223 93.5593V92.226H95.589V93.5593H96.9223ZM96.9223 96.8624V98.1957H98.2556V96.8624H96.9223ZM96.9223 92.8122H95.589V94.1455H96.9223V92.8122ZM99.8223 92.3698L100.785 93.2923L100.791 93.2863L100.797 93.2801L99.8223 92.3698ZM96.9223 89.6861V88.3527H95.589V89.6861H96.9223ZM95.9688 96.8624H97.3021V88.8701H95.9688H94.6354V96.8624H95.9688ZM95.9688 88.8701V90.2035H98.5444V88.8701V87.5368H95.9688V88.8701ZM98.5444 88.8701V90.2035C99.0377 90.2035 99.3133 90.2883 99.4524 90.3622L100.078 89.1847L100.703 88.0072C100.056 87.6633 99.3094 87.5368 98.5444 87.5368V88.8701ZM100.078 89.1847L99.464 90.3683C99.6348 90.4569 99.7207 90.5534 99.7768 90.6584L100.953 90.0301L102.129 89.4018C101.802 88.7892 101.307 88.3205 100.692 88.0011L100.078 89.1847ZM100.953 90.0301L99.7771 90.6588C99.8561 90.8067 99.9046 90.9819 99.9046 91.2098H101.238H102.571C102.571 90.5726 102.428 89.9613 102.129 89.4014L100.953 90.0301ZM101.238 91.2098H99.9046C99.9046 91.4632 99.8416 91.6608 99.7224 91.8413L100.835 92.5762L101.947 93.3112C102.364 92.6806 102.571 91.9689 102.571 91.2098H101.238ZM100.835 92.5762L99.7297 91.8304C99.6679 91.9219 99.5384 92.0518 99.1965 92.1535L99.5766 93.4315L99.9567 94.7095C100.755 94.4721 101.461 94.0318 101.94 93.3221L100.835 92.5762ZM99.5766 93.4315L98.3874 94.0346L100.127 97.4655L101.317 96.8624L102.506 96.2593L100.766 92.8284L99.5766 93.4315ZM101.317 96.8624V95.529H100.186V96.8624V98.1957H101.317V96.8624ZM100.186 96.8624L101.384 96.2775L99.7721 92.9745L98.5738 93.5593L97.3756 94.1441L98.9878 97.4472L100.186 96.8624ZM98.5738 93.5593V92.226H96.9223V93.5593V94.8926H98.5738V93.5593ZM96.9223 93.5593H95.589V96.8624H96.9223H98.2556V93.5593H96.9223ZM96.9223 96.8624V95.529H95.9688V96.8624V98.1957H96.9223V96.8624ZM96.9223 92.8122V94.1455H98.4755V92.8122V91.4788H96.9223V92.8122ZM98.4755 92.8122V94.1455C99.2704 94.1455 100.147 93.9576 100.785 93.2923L99.8223 92.3698L98.8597 91.4473C98.8921 91.4134 98.9075 91.4183 98.8574 91.4348C98.8005 91.4535 98.6815 91.4788 98.4755 91.4788V92.8122ZM99.8223 92.3698L100.797 93.2801C101.336 92.7027 101.578 91.9801 101.578 91.2196H100.245H98.9117C98.9117 91.393 98.8689 91.4373 98.8481 91.4595L99.8223 92.3698ZM100.245 91.2196H101.578C101.578 90.4742 101.352 89.7329 100.775 89.1561L99.8322 90.0989L98.8894 91.0417C98.8902 91.0426 98.8892 91.0416 98.8879 91.0396C98.8867 91.0377 98.888 91.0392 98.8907 91.0465C98.8961 91.0611 98.9117 91.1125 98.9117 91.2196H100.245ZM99.8322 90.0989L100.775 89.1561C100.131 88.5119 99.2393 88.3527 98.4657 88.3527V89.6861V91.0194C98.6928 91.0194 98.8288 91.0448 98.8982 91.0657C98.9628 91.0852 98.9387 91.0911 98.8894 91.0417L99.8322 90.0989ZM98.4657 89.6861V88.3527H96.9223V89.6861V91.0194H98.4657V89.6861ZM96.9223 89.6861H95.589V92.8122H96.9223H98.2556V89.6861H96.9223Z" fill="#E8E8E8" mask="url(#path-48-inside-15_2194_9308)"/>
<mask id="path-50-inside-16_2194_9308" fill="white">
<path d="M108.193 96.8624V93.8247L105.588 88.8701H106.679L108.675 92.9105L110.67 88.8701H111.742L109.147 93.8247V96.8624H108.193Z"/>
</mask>
<path d="M108.193 96.8624V93.8247L105.588 88.8701H106.679L108.675 92.9105L110.67 88.8701H111.742L109.147 93.8247V96.8624H108.193Z" fill="#444040"/>
<path d="M108.193 96.8624H106.86V98.1957H108.193V96.8624ZM108.193 93.8247H109.526V93.4956L109.373 93.2042L108.193 93.8247ZM105.588 88.8701V87.5368H103.38L104.408 89.4906L105.588 88.8701ZM106.679 88.8701L107.875 88.2797L107.508 87.5368H106.679V88.8701ZM108.675 92.9105L107.479 93.5009L108.675 95.9213L109.87 93.5009L108.675 92.9105ZM110.67 88.8701V87.5368H109.842L109.475 88.2797L110.67 88.8701ZM111.742 88.8701L112.923 89.4888L113.945 87.5368H111.742V88.8701ZM109.147 93.8247L107.965 93.206L107.813 93.4967V93.8247H109.147ZM109.147 96.8624V98.1957H110.48V96.8624H109.147ZM108.193 96.8624H109.526V93.8247H108.193H106.86V96.8624H108.193ZM108.193 93.8247L109.373 93.2042L106.768 88.2496L105.588 88.8701L104.408 89.4906L107.013 94.4452L108.193 93.8247ZM105.588 88.8701V90.2035H106.679V88.8701V87.5368H105.588V88.8701ZM106.679 88.8701L105.484 89.4606L107.479 93.5009L108.675 92.9105L109.87 92.32L107.875 88.2797L106.679 88.8701ZM108.675 92.9105L109.87 93.5009L111.866 89.4606L110.67 88.8701L109.475 88.2797L107.479 92.32L108.675 92.9105ZM110.67 88.8701V90.2035H111.742V88.8701V87.5368H110.67V88.8701ZM111.742 88.8701L110.561 88.2514L107.965 93.206L109.147 93.8247L110.328 94.4434L112.923 89.4888L111.742 88.8701ZM109.147 93.8247H107.813V96.8624H109.147H110.48V93.8247H109.147ZM109.147 96.8624V95.529H108.193V96.8624V98.1957H109.147V96.8624Z" fill="#E8E8E8" mask="url(#path-50-inside-16_2194_9308)"/>
</svg>
