<svg width="24" height="14" viewBox="0 0 24 14" fill="none" xmlns="http://www.w3.org/2000/svg">
<path d="M0.178955 0.202148C0.178955 0.202148 0.621355 0.202148 1.50605 0.202148C1.50605 0.202148 1.50605 2.96785 1.50605 8.49905C1.50605 9.70615 1.71116 10.623 2.12136 11.25C2.37326 11.6367 2.73065 11.9443 3.19355 12.1729C3.65645 12.3955 4.15746 12.5068 4.69656 12.5068C5.24726 12.5068 5.75416 12.3955 6.21706 12.1729C6.67996 11.9443 7.03736 11.6367 7.28926 11.25C7.69356 10.6289 7.89575 9.71195 7.89575 8.49905V0.202148H9.23166C9.23166 0.202148 9.23166 2.96785 9.23166 8.49905C9.23166 9.34865 9.15845 10.0518 9.01195 10.6084C8.86545 11.1592 8.62525 11.6543 8.29125 12.0938C7.89865 12.6152 7.38885 13.0195 6.76195 13.3066C6.13495 13.5938 5.44656 13.7373 4.69656 13.7373C3.95826 13.7373 3.27266 13.5938 2.63986 13.3066C2.01296 13.0195 1.50316 12.6152 1.11056 12.0938C0.776556 11.6543 0.536355 11.1592 0.389855 10.6084C0.249255 10.0576 0.178955 9.35455 0.178955 8.49905V0.202148ZM11.07 13.5C11.07 13.5 12.9714 9.06745 16.7741 0.202148C16.7741 0.202148 17.2722 0.202148 18.2683 0.202148C18.2683 0.202148 20.1755 4.63485 23.99 13.5C23.99 13.5 23.5036 13.5 22.531 13.5C22.531 13.5 21.8894 12.0059 20.6062 9.01765C20.6062 9.01765 18.5407 9.01765 14.4099 9.01765C14.4099 9.01765 13.7624 10.5117 12.4675 13.5C12.4675 13.5 12.0017 13.5 11.07 13.5ZM14.9196 7.81355C14.9196 7.81355 16.6423 7.81355 20.0876 7.81355C20.0876 7.81355 19.2351 5.78035 17.53 1.71395C17.53 1.71395 16.6599 3.74715 14.9196 7.81355Z" fill="#E8E8E8"/>
</svg>
